<?xml version="1.0" encoding="UTF-8"?>
<svg id="Layer_2" data-name="Layer 2" xmlns="http://www.w3.org/2000/svg" viewBox="0 0 644.27 557.552">
  <g id="Layer_1-2" data-name="Layer 1">
    <g>
      <path id="l1_shoe" d="m575.566,496.794l29.392-15.656,39.311,69.841s-10.178,17.133-23.916-3.926c-8.704-13.342-22.996-6.4-22.996-6.4l-14.402,2.859-7.389-46.719Z"/>
      <path id="l1_shoe-2" data-name="l1_shoe" d="m377.498,515.172l1.822,34.726h-82.136s-10.244-17.094,14.813-19.182c15.875-1.323,16.554-17.198,16.554-17.198"/>
      <path d="m424.172,305.724c-2.99-10.2,1.311-21.052,11.101-25.571l48.066-20.184c24.867-10.611,36.603-5.685,44.329,4.299,5.773,7.46,20.309,46.342,26.625,64.23,9.836,27.857,21.274,52.912,21.274,52.912l-110.777,32.574s-37.918-99.053-40.617-108.26Z" fill="#fff" stroke="#000" stroke-linecap="round" stroke-linejoin="round" stroke-width="1.5"/>
      <polygon points="163.318 374.439 181.372 370.928 201.485 403.433 172.213 431.758 163.318 411.58 163.318 374.439" fill="#fff"/>
      <g>
        <path d="m295.67,448.189s-18.544,9.591-26.999,12.842c-14.582,5.607-23.504,7.869-28.412,5.05-1.05-.603-2.759-2.985,5.505-4.014,4.897-.61,12.076-7.886,12.076-7.886" fill="#fff" stroke="#000" stroke-linecap="round" stroke-linejoin="round" stroke-width="1.5"/>
        <path d="m292.631,413.723s-23.832,10.718-31.968,13.821c-8.036,3.065-16.386,3.924-17.005,6.816-1.138,5.323,19.097,2.562,25.205.004" fill="#fff" stroke="#000" stroke-linecap="round" stroke-linejoin="round" stroke-width="1.5"/>
        <polygon points="295.111 434.312 288.839 420.232 257.246 435.005 247.062 449.017 255.887 463.822 295.111 434.312" fill="#fff"/>
        <path d="m258.174,457.96c-8.609,5.092-22.775,6.08-25.202,5.333-2.681-.825-2.607-4.342,2.658-4.94,2.091-.238,4.378-1.482,7.693-1.891" fill="#fff" stroke="#000" stroke-linecap="round" stroke-linejoin="round" stroke-width="1.5"/>
        <path d="m255.724,452.203c-7.661,3.905-15.471,6.537-21.01,6.579-1.678.013-4.991-.016-6.115-1.01-2.773-2.451,2.752-4.461,8.241-5.487" fill="#fff" stroke="#000" stroke-linecap="round" stroke-linejoin="round" stroke-width="1.5"/>
        <path d="m262.779,432.097s-14.17,8.401-31.12,17.058c-1.085.554-3.013,3.854,2.243,3.919,6.644.082,18.932-7.224,18.932-7.224" fill="#fff" stroke="#000" stroke-linecap="round" stroke-linejoin="round" stroke-width="1.5"/>
      </g>
      <path d="m428.282,285.399l-76.841,76.426-84.844,57.198,22.344,38.881,92.795-51.883c1.828-.934,3.632-2.189,5.171-3.689l.642-.626,51.993-56.329" fill="#fff" stroke="#000" stroke-linecap="round" stroke-linejoin="round" stroke-width="1.5"/>
      <path d="m390.844,521l32.11-94.841,90.909,41.276c20.972,7.098,43.846-14.332,51.085-34.904,7.237-20.573-3.898-43.005-24.874-50.104l-128.136-43.367c-20.676-7.001-43.267,3.516-50.815,23.654l-39.144,151.536,68.864,6.75Z" fill="#008a1e"/>
      <path d="m390.844,521l32.11-94.841,90.909,41.276c20.972,7.098,43.846-14.332,51.085-34.904,7.237-20.573-3.898-43.005-24.874-50.104l-128.136-43.367c-20.676-7.001-43.267,3.516-50.815,23.654l-39.144,151.536,68.864,6.75Z" fill="none" stroke="#000" stroke-linecap="round" stroke-linejoin="round" stroke-width="1.5"/>
      <path d="m465.953,413.012l-92.265,63.528-.405.21c-12.298,6.647-20.665,19.448-20.76,34.198-.14,21.706,17.688,39.413,39.819,39.551l197.932,1.226,1.241-67.592-86.221-1.251,51.221-21.712s54.201-21.001,19.052-79.758" fill="#008a1e"/>
      <path d="m373.688,476.539l-.405.21c-12.298,6.647-20.665,19.448-20.76,34.198-.14,21.706,17.688,39.413,39.819,39.551" fill="#008a1e" stroke="#000" stroke-linecap="round" stroke-linejoin="round" stroke-width="1.5"/>
      <line x1="465.953" y1="413.012" x2="373.688" y2="476.539" fill="#008a1e" stroke="#000" stroke-linecap="round" stroke-linejoin="round" stroke-width="1.5"/>
      <path d="m465.953,413.012l-92.265,63.528-.405.21c-12.298,6.647-20.665,19.448-20.76,34.198-.14,21.706,17.688,39.413,39.819,39.551l197.932,1.226,1.241-67.592-86.221-1.251,51.221-21.712s54.201-21.001,19.052-79.758" fill="none" stroke="#000" stroke-linecap="round" stroke-linejoin="round" stroke-width="1.5"/>
      <path d="m421.989,212.553s2.488-.26,3.586,1.27c0,0-1.459-.139-2.645,1.25" fill="#fff" stroke="#000" stroke-linecap="round" stroke-linejoin="round" stroke-width="1.5"/>
      <g>
        <path d="m479.763,397.106s-28,6.373-36.403,8.511c-9.168,2.333-21.645,4.284-23.22,6.783-2.899,4.6,21.943,2.681,28.537,2.315" fill="#fff" stroke="#000" stroke-linecap="round" stroke-linejoin="round" stroke-width="1.5"/>
        <g>
          <polygon points="451.115 409.1 443.197 409.706 433.582 412.435 422.196 440.919 460.376 430.365 476.187 422.961 470.375 406.786 461.635 407.902 451.115 409.1" fill="#fff"/>
          <path d="m467.311,427.817l-31.383,9.811-16.194.735s-5.269.787-10.076,2.484c-1.889.667-2.988-.202-3.486-1.376-1.053-2.483,10.622-17.272,24.368-25.122.882-.504,2.197-1.109,3.843-1.787" fill="#fff" stroke="#000" stroke-linecap="round" stroke-linejoin="round" stroke-width="1.5"/>
          <path d="m424.215,435.131c-5.836,5.003-13.057,16.307-16.61,12.109-2.178-2.573,4.16-9.412,10.156-15.648,2.888-3.004,3.739-3.71,8.075-6.979" fill="#fff" stroke="#000" stroke-linecap="round" stroke-linejoin="round" stroke-width="1.5"/>
          <path d="m429.664,428.554c-4.992,3.226-18.143,17.182-16.589,20.141.976,1.86,2.626,1.735,5.077-.15,1.603-1.233,3.924-3.69,5.315-5.205,2.255-2.455,14.894-11.071,14.894-11.071" fill="#fff" stroke="#000" stroke-linecap="round" stroke-linejoin="round" stroke-width="1.5"/>
          <path d="m433.975,432.498s.09-.172-2.107,1.607c-4.627,3.747-9.943,10.196-10.376,11.912-.807,3.197,2.035,3.645,4.955.921,14.078-13.138,24.266-12.649,44.358-20.785" fill="#fff" stroke="#000" stroke-linecap="round" stroke-linejoin="round" stroke-width="1.5"/>
        </g>
      </g>
      <path d="m500.225,319.846l25.536,29.892-80.686,47.406,24.283,41.321,110.614-58.554c1.796-.883,3.642-2.037,5.249-3.358,11.123-9.141,12.585-25.395,3.265-36.304l-.698-.817-60.121-75.164" fill="#fff" stroke="#000" stroke-linecap="round" stroke-linejoin="round" stroke-width="1.5"/>
      <line x1="505.294" y1="482.88" x2="442.242" y2="482.88" fill="#008a1e" stroke="#000" stroke-linecap="round" stroke-linejoin="round" stroke-width="1.5"/>
      <path d="m191.155,455.989s-15.123,35.765-14.141,53.091l13.367,32.833s10.417-4.324,9.819,9.088h-21.132l-16.647-36.18c-9.956-20.285-10.156-34.754-10.156-34.754" fill="#fff" stroke="#000" stroke-linecap="round" stroke-linejoin="round" stroke-width="1.5"/>
      <path d="m73.614,465.072s1.176,19.873-.339,29.111c-3.175,19.366,22.402,56.818,22.402,56.818h18.589c2.119-10.394-11.657-9.32-11.657-9.32l-12.728-25.938c24.491-12.805,31.731-39.986,31.731-39.986" fill="#fff" stroke="#000" stroke-linecap="round" stroke-linejoin="round" stroke-width="1.5"/>
      <path d="m205.09,398.836c9.575,30.859.356,47.659-22.201,70.741-18.85,19.289-82.474,11.18-82.474,11.18l-18.302,2.755-16.841-9.279" fill="#fff" stroke="#000" stroke-linecap="round" stroke-linejoin="round" stroke-width="1.5"/>
      <path d="m191.155,437.576s17.397,22.558,27.773,22.942c10.377.384,23.934,1.632,33.878.918,9.944-.714,22.483,12.36,16.105,19.236s-14.233-2.96-14.233-2.96c0,0-24.358.176-35.119,1.7-10.761,1.524-39.704-19.068-39.704-19.068" fill="#fff" stroke="#000" stroke-linecap="round" stroke-linejoin="round" stroke-width="1.5"/>
      <polygon points="212.391 411.655 167.653 404.047 157.265 413.644 212.3 423.78 212.391 411.655"/>
      <path d="m101.843,460.363c2.56,58.366-44.612,56.871-44.612,56.871,6.403,27.77,13.372,24.679,13.372,24.679,13.239-3.884,10.077,9.266,10.077,9.266l-15.407-.044c-9.787-.134-25.918-31.69-21.674-41.1,4.243-9.41,14.085-7.501,14.085-7.501-15.422-41.999-4.804-53.972-4.804-53.972-26.306,11.085-36.369,2.852-46.798-15.676-11.89-21.123-1.833-38.29,10.015-8.238,7.898,20.034,23.178,15.145,32.487,9.659,7.002-4.127,14.495-7.388,22.4-9.41,24.603-6.294,86.045-13.824,86.045-13.824" fill="#fff" stroke="#000" stroke-linecap="round" stroke-linejoin="round" stroke-width="1.5"/>
      <path d="m144.644,437.586c-10.521-.704-7.35,15.118-21.771,16.305-14.421,1.177-13.435-12.746-29.152-15.195-12.396-1.944-15.042-11.622-15.599-15.626,24.93-6.347,78.906-11.997,78.906-11.997h.01l5.967.588c8.218,8.764-7.853,26.628-18.363,25.924Z"/>
      <ellipse cx="214.711" cy="422.482" rx="4.376" ry="9.3" transform="translate(-179.092 158.832) rotate(-29.258)" fill="#fff" stroke="#000" stroke-linecap="round" stroke-linejoin="round" stroke-width="1.5"/>
      <path d="m80.319,486.33c-7.36,5.716-12.621,4.96-26.86,3.3-5.035-17.759-4.596-28.519-3.246-34.551,4.725-1.482,10.746-1.786,15.064,3.583,4.746,5.906,6.117,13.661,10.403,15.058,4.285,1.398,13.21,5.958,4.639,12.61Z"/>
      <path d="m181.339,471.009c-8.336,7.082-23.217,10.014-37.959,11.012v-.01s-1.993-7.587,5.153-11.79c7.146-4.203,2.143-11.506,13.574-16.267,10.082-4.193,21.128,4.266,19.231,17.055Z"/>
      <path d="m181.553,383.665c-1.279,11.802-.056,23.35-3.031,30.286-4.531,10.562-19.08,9.362-26.875,5.122-6.409-3.486-10.661-10.704-7.395-19.564,6.146-16.673,14.307-36.544,26.055-41.919,31.721-14.514,42.318,7.928,42.318,7.928l22.369.438c3.913-.265,7.263,2.839,7.093,6.682-.31,6.993-3.072,17.414-15.629,23.133l-29.477,7.96" fill="#fff" stroke="#000" stroke-linecap="round" stroke-linejoin="round" stroke-width="1.5"/>
      <path d="m227.674,366.174s1.252,13.843,13.8,11.339l.948-6.056c.03-3.39-3.787-5.747-7.235-5.513l-7.513.23Z"/>
      <path d="m216.299,389.078s-8.002,4.784-11.822-2.21" fill="#fff" stroke="#000" stroke-linecap="round" stroke-linejoin="round" stroke-width="1.5"/>
      <ellipse cx="198.264" cy="366.916" rx="2.071" ry="2.031"/>
      <path d="m195.541,356.318s-8.356-.385-9.654,6.741" fill="#fff" stroke="#000" stroke-linecap="round" stroke-linejoin="round" stroke-width="1.5"/>
      <g>
        <g>
          <path d="m472.131,191.792c6.396,18.969-4.098,39.433-23.439,45.706-12.677,4.112-24.756-17.529-34.972-10.562-1.473,1.005-9.425-5.891-11.628-12.427-6.396-18.969,4.098-39.433,23.439-45.706,19.341-6.273,40.204,4.019,46.6,22.989Z"/>
          <path d="m471.247,220.668c4.884-1.584,7.517-6.804,5.88-11.658-1.566-4.646-6.475-7.263-11.175-6.092-8.647-14.578-25.675-22.301-42.444-16.862-12.608,4.089-14.969,12.224-17.747,24.171-1.47,6.322,9.401,37.397,15.81,42.811,4.286,3.62,10.358,5.065,19.022,3.853l6.198,18.143s4.295,17.334,23.848,11.004c22.065-7.144,13.986-24.08,13.986-24.08,0,0-13.496-38.916-13.55-41.243.057-.017.115-.028.172-.046Z" fill="#fff" stroke="#000" stroke-linecap="round" stroke-linejoin="round" stroke-width="1.5"/>
          <path d="m440.794,256.835s8.921-.955,15.462-8.404" fill="#fff" stroke="#000" stroke-linecap="round" stroke-linejoin="round" stroke-width="1.5"/>
        </g>
        <path d="m439.306,214.633l-.064-.146c-.141-.262-.335-.473-.58-.631-.217-.199-.472-.333-.765-.403-.299-.094-.598-.107-.897-.04-.299.014-.578.103-.837.267l-.455.352c-.279.281-.472.612-.579.993l-.08.598c.001.406.104.785.307,1.136l.064.146c.141.262.335.473.58.631.217.199.472.333.765.403.299.094.598.107.897.04.299-.014.578-.103.837-.267l.455-.352c.279-.281.472-.612.579-.993l.08-.598c-.001-.406-.104-.785-.307-1.136h0Z"/>
        <path d="m421.192,221.51l-.064-.146c-.141-.262-.335-.473-.58-.631-.217-.199-.472-.333-.765-.403-.299-.094-.598-.107-.897-.04-.299.014-.578.103-.837.267l-.455.352c-.279.281-.472.612-.579.993l-.08.598c.001.406.104.785.307,1.136l.064.146c.141.262.335.473.58.631.217.199.472.333.765.403.299.094.598.107.897.04.299-.014.578-.103.837-.267l.455-.352c.279-.281.472-.612.579-.993l.08-.598c-.001-.406-.104-.785-.307-1.136h0Z"/>
        <path d="m426.846,227.779l.431,4.554c.08.841,1.005,1.333,1.767.939l3.622-1.87" fill="#fff" stroke="#000" stroke-linecap="round" stroke-linejoin="round" stroke-width="1.5"/>
        <path d="m431.491,209.739s4.917-3.599,8.897-.882" fill="#fff" stroke="#000" stroke-linecap="round" stroke-linejoin="round" stroke-width="1.5"/>
        <path d="m411.872,220.504s2.367-5.551,7.204-5.197" fill="#fff" stroke="#000" stroke-linecap="round" stroke-linejoin="round" stroke-width="1.5"/>
        <path d="m456.257,248.431l-10.598,23.187-5.067-14.726s5.526-.804,10.011-3.703c4.485-2.9,5.654-4.757,5.654-4.757Z" stroke="#000" stroke-linecap="round" stroke-linejoin="round" stroke-width="1.5"/>
        <path d="m407.277,221.883s3.219-.629,1.033-8.982c0,0-1.394-2.997.973-3.688,1.903-.555,25.279-9.14,34.366-12.483,1.968-.724,4.166.192,4.995,2.087,1.684,3.854,4.555,9.796,6.844,11.329,3.462,2.319,4.042,1,5.835,3.8,2.674,4.175,2.897,4.566,2.897,4.566l5.066-2.212-3.929-15.05-11.146-24.682-15.105-3.93-22.995,9.998-11.193,12.942-.932,9.161,3.292,17.144Z"/>
        <g>
          <polygon points="459.684 280.163 474.302 275.189 481.382 285.149 461.051 292.003 459.684 280.163" fill="#fff"/>
          <polygon points="482.172 255.883 489.579 260.326 481.687 287.392 466.162 278.13 482.172 255.883" fill="#fff" stroke="#000" stroke-linecap="round" stroke-linejoin="round" stroke-width="1.5"/>
          <polygon points="466.162 278.13 461.908 294.733 442.432 278.082 445.122 271.091 466.162 278.13" fill="#fff" stroke="#000" stroke-linecap="round" stroke-linejoin="round" stroke-width="1.5"/>
          <ellipse cx="278.127" cy="422.17" rx="3.459" ry="3.393" fill="#fff" stroke="#000" stroke-linecap="round" stroke-linejoin="round" stroke-width="1.5"/>
          <line x1="466.162" y1="278.13" x2="500.617" y2="364.511" fill="#fff" stroke="#000" stroke-linecap="round" stroke-linejoin="round" stroke-width="1.5"/>
          <ellipse cx="472.019" cy="425.563" rx="3.459" ry="3.393" fill="#fff" stroke="#000" stroke-linecap="round" stroke-linejoin="round" stroke-width="1.5"/>
        </g>
        <g>
          <path d="m470.674,187.085c-6.89-19.174-28.323-29.238-47.872-22.48-19.549,6.758-29.811,27.78-22.92,46.953l70.792-24.473Z" fill="#008a1e" stroke="#000" stroke-linecap="round" stroke-linejoin="round" stroke-width="1.5"/>
          <path d="m469.663,188.467l-99.012,34.442c-.996.346-2.085-.172-2.443-1.164h0c-.365-1.009.165-2.121,1.178-2.473l99.012-34.442c.996-.346,2.085.172,2.443,1.164h0c.365,1.009-.165,2.121-1.178,2.473Z" fill="#008a1e" stroke="#000" stroke-linecap="round" stroke-linejoin="round" stroke-width="1.5"/>
        </g>
      </g>
      <path d="m443.999,235.905s-1.148,4.744-7.221,4.189" fill="#fff" stroke="#000" stroke-linecap="round" stroke-linejoin="round" stroke-width="1.5"/>
      <polyline points="518.445 225.623 518.445 26.252 462.939 26.252 462.939 112.344 425.556 112.344 425.556 88.178 383.267 88.178 383.267 112.344 319.074 112.344 319.074 63.257 233.103 63.257 233.103 155.793 172.189 155.793 172.189 98.751 86.474 98.751 86.474 234.265" fill="none" stroke="#b7b7b7" stroke-linecap="round" stroke-linejoin="round" stroke-width="1.5"/>
      <circle cx="157.98" cy="20.984" r="20.234" fill="none" stroke="#b7b7b7" stroke-linecap="round" stroke-linejoin="round" stroke-width="1.5"/>
    </g>
  </g>
</svg>