<?xml version="1.0" encoding="UTF-8"?>
<svg id="Layer_2" data-name="Layer 2" xmlns="http://www.w3.org/2000/svg" viewBox="0 0 677.163 681.561">
  <g id="Layer_1-2" data-name="Layer 1">
    <g>
      <g>
        <path d="m446.819.75h-227.178c-30.053,0-54.416,24.363-54.416,54.416v571.228c0,30.053,24.363,54.416,54.416,54.416h227.178c30.053,0,54.416-24.363,54.416-54.416V55.166c0-30.053-24.363-54.416-54.416-54.416Zm37.75,620.25c0,22.494-18.235,40.73-40.73,40.73h-221.219c-22.494,0-40.73-18.235-40.73-40.73V59.55c0-22.494,18.235-40.73,40.73-40.73h58.853v8.915c0,7.818,6.338,14.156,14.156,14.156h75.2c7.818,0,14.156-6.338,14.156-14.156v-8.915h58.843c22.5,0,40.74,18.24,40.74,40.74v561.44Z" fill="#008a1e" stroke="#008a1e" stroke-linecap="round" stroke-linejoin="round" stroke-width="1.5"/>
        <rect x="165.412" y="10.801" width="319.424" height="660.877" rx="51.139" ry="51.139" fill="#fff"/>
        <path d="m440.09.75h-227.178c-30.053,0-54.416,24.363-54.416,54.416v571.228c0,30.053,24.363,54.416,54.416,54.416h227.178c30.053,0,54.416-24.363,54.416-54.416V55.166c0-30.053-24.363-54.416-54.416-54.416Zm37.75,620.25c0,22.494-18.235,40.73-40.73,40.73h-221.219c-22.494,0-40.73-18.235-40.73-40.73V59.55c0-22.494,18.235-40.73,40.73-40.73h58.853v8.915c0,7.818,6.338,14.156,14.156,14.156h75.2c7.818,0,14.156-6.338,14.156-14.156v-8.915h58.843c22.5,0,40.74,18.24,40.74,40.74v561.44Z" fill="#fff" stroke="#008a1e" stroke-linecap="round" stroke-linejoin="round" stroke-width="1.5"/>
      </g>
      <line x1="613.228" y1="680.156" x2="7.537" y2="680.156" fill="#008a1e" stroke="#000" stroke-linecap="round" stroke-linejoin="round" stroke-width="1.5"/>
      <g>
        <g>
          <path d="m507.227,560.678l.025-19.21h0c0-12.902,10.459-23.361,23.361-23.361,12.902,0,23.361,10.459,23.361,23.361h0v19.21" fill="none" stroke="#000" stroke-miterlimit="10" stroke-width="1.5"/>
          <rect x="442.915" y="550.656" width="106.072" height="129.458" fill="#fff" stroke="#000" stroke-miterlimit="10" stroke-width="1.5"/>
          <path d="m477.994,560.678l.025-19.21h0c0-12.902,10.459-23.361,23.361-23.361,12.902,0,23.361,10.459,23.361,23.361h0v19.21" fill="none" stroke="#000" stroke-miterlimit="10" stroke-width="1.5"/>
          <circle cx="524.742" cy="560.456" r="1.904"/>
          <circle cx="477.994" cy="560.456" r="1.904"/>
          <polygon points="582.396 680.114 582.396 680.114 582.396 680.114 582.396 550.655 565.692 550.655 548.987 550.655 548.987 680.114 549.012 680.114 549 680.126 582.231 680.114 582.396 680.114 582.396 680.114" fill="#008a1e" stroke="#000" stroke-linecap="round" stroke-linejoin="round" stroke-width="1.5"/>
        </g>
        <g>
          <path d="m588.948,588.323v-13.143c0-11.878,9.629-21.507,21.507-21.507,11.878,0,21.507,9.629,21.507,21.507v13.143" fill="none" stroke="#000" stroke-miterlimit="10" stroke-width="1.5"/>
          <polygon points="648.534 575.379 630.569 575.379 622.603 575.379 650.482 680.126 658.448 680.126 676.413 680.126 648.534 575.379" fill="#008a1e" stroke="#000" stroke-linecap="round" stroke-linejoin="round" stroke-width="1.5"/>
          <polygon points="530.6 680.126 650.482 680.126 622.603 575.379 558.48 575.379 530.6 680.126" fill="#fff" stroke="#000" stroke-miterlimit="10" stroke-width="1.5"/>
          <path d="m569.433,588.323v-13.143c0-11.878,9.629-21.507,21.507-21.507,11.878,0,21.507,9.629,21.507,21.507v13.143" fill="none" stroke="#000" stroke-miterlimit="10" stroke-width="1.5"/>
          <circle cx="612.447" cy="588.323" r="1.195"/>
          <circle cx="569.433" cy="588.323" r="1.195"/>
        </g>
      </g>
      <rect x="196.306" y="110.158" width="257.636" height="378.795" fill="#fff" stroke="#000" stroke-linecap="round" stroke-linejoin="round" stroke-width="1.5"/>
      <path d="m388.63,181.739c-3.91-11.42-13.333-19.328-24.246-20.355l-15.187-1.433s-2.79,25.622-24.884,25.622-24.891-25.622-24.891-25.622l-15.187,1.433c-10.913,1.027-20.335,8.935-24.245,20.355l-20.246,50.978s12.11,18.026,29.304,21.695l11.805-19.153s2.679,20.919-.102,44.185c-2.074,17.357-9.37,36.021-11.336,48.281-3.492,21.771-4.836,45.346-.906,93.802,0,0,17.41,6.292,55.801,6.292,37.855,0,55.801-6.292,55.801-6.292,3.811-46.987,2.663-70.048-.594-91.793-2.057-13.733-9.593-32.045-11.834-50.618-2.688-22.281.084-43.857.084-43.857l13.034,19.153c17.454-4.248,29.703-21.695,29.703-21.695l-21.875-50.978Z" fill="#008a1e" stroke="#000" stroke-linecap="round" stroke-linejoin="round" stroke-width="1.5"/>
      <g>
        <g>
          <polyline points="116.593 579.143 129.553 620.038 93.99 629.166 82.99 594.166" fill="#fff" stroke="#000" stroke-linecap="round" stroke-linejoin="round" stroke-width="1.5"/>
          <path d="m131.895,619.352l9.435,32.602-12.746,4.039c-2.142-2.466-4.536-5.511-4.536-5.511l-3.051,7.916-52.678,16.547s-9.249-12.831,10.956-20.227c21.354-7.817,10.217-36.148,10.217-36.148l15.542-4.926,7.951,8.532,2.191-11.747,12.622-4,4.095,12.923Z" fill="#fff" stroke="#000" stroke-linecap="round" stroke-linejoin="round" stroke-width="1.5"/>
        </g>
        <polyline points="57.862 603.901 48.203 642.037 79.812 656.517 96.812 617.13" fill="#fff" stroke="#000" stroke-linecap="round" stroke-linejoin="round" stroke-width="1.5"/>
        <path d="m88.549,646.357l-.855,33.929h-13.371c-1.297-2.997-2.659-6.624-2.659-6.624l-5.299,6.624H11.664s-5.408-16.468,16.087-17.415c22.717-1.001,20.613-30.07,20.613-30.07h16.304s5.002,10.536,5.002,10.536l5.638-10.536h13.241s0,13.556,0,13.556Z" fill="#fff" stroke="#000" stroke-linecap="round" stroke-linejoin="round" stroke-width="1.5"/>
        <g>
          <path d="m165.99,306.166l-49.077-51.858L14.913,406.307l-.908,1.022c-7.285,8.344-10.534,19.982-7.71,31.561l68.696,175.275,60.667-19.456-59.591-152.238,89.924-136.306Z" fill="#008a1e" stroke="#000" stroke-linecap="round" stroke-linejoin="round" stroke-width="1.5"/>
          <path d="m174.748,276.65l.866.924.562.621.937,1.068c.564.659,1.131-5.673,1.63-5.055.525.637,1.02,1.258,1.497,1.871.491.62.961,1.235,1.414,1.844,1.846,2.449,3.541,4.89,5.149,7.383,3.216,4.977-4.358,10.462-1.813,15.859,19.174,32.964,1.95,81.326-3,92,.312.037-82.151,241.28-82.151,241.28l-60.849-20.28,79-274" fill="#008a1e" stroke="#000" stroke-linecap="round" stroke-linejoin="round" stroke-width="1.5"/>
        </g>
        <g>
          <path d="m205.305,104.466c-2.675-21.303-14.036-37.502-34.926-40.142-20.89-2.641-40.007,12.487-42.7,33.788,0,0-1.979,21.515-.296,39.345,1.684,17.831-4.048,85.935-4.048,85.935l81.637,1.927s1.526-81.472,1.427-97.198q-.099-15.726-1.094-23.655Z"/>
          <line x1="108.11" y1="183.903" x2="27.72" y2="247.217" fill="none" stroke="#008a1e" stroke-linecap="round" stroke-linejoin="round" stroke-width="1.5"/>
          <path d="m24.152,272.303c-6.291-.894-12.253-4.14-16.454-9.558-8.575-11.058-6.563-26.975,4.495-35.551l80.39-63.315c11.059-8.576,26.974-6.563,35.551,4.495,8.575,11.058,6.563,26.975-4.495,35.551l-80.39,63.315c-5.64,4.374-12.547,5.994-19.096,5.063Z" stroke="#fff" stroke-linecap="round" stroke-linejoin="round" stroke-width="1.5"/>
          <g>
            <path d="m92.15,129.534c-3.715.273-13.225,2.786-23.53,11.077-5.611,4.515-26.201,30.971-30.45,36.46l-1.1.982,35.243,5.077s11.762-24.902,14.149-28.277c4.196-5.932,8.035-11.035,5.425-11.972-2.609-.938-4.434.918-7.854,4.529-12.264,12.949-11.67,2.7-11.662,2.377.013-.538,5.094-6.98,6.432-7.993,4.777-3.613,8.476-5.934,14.208-9.065,1.326-.724.884-3.324-.861-3.195Z" fill="#fff" stroke="#000" stroke-linecap="round" stroke-linejoin="round" stroke-width="1.5"/>
            <polygon points="38.783 178.678 73.293 176.63 81.338 155.813 70.792 141.923 46.232 168.878 38.783 178.678" fill="#fff"/>
            <path d="m77.925,138.934s4.29,1.523,7.238,2.978c1.548.764,4.135,5.317,4.704,6.59,1.95,4.369-.114,5.273-2.629,3.452-2.364-1.711-3.103-3.798-5.509-5.104-2.245-1.22-8.21-1.659-8.21-1.659" fill="#fff" stroke="#000" stroke-linecap="round" stroke-linejoin="round" stroke-width="1.5"/>
            <path d="m73.503,142.434s4.837,2.151,7.643,3.951c1.453.932,3.522,5.246,3.786,6.615.405,2.101.148,3.197-1.392,3.236-2.198.056-3.528-4.399-5.934-5.706-2.245-1.22-8.644-3.919-8.644-3.919" fill="#fff" stroke="#000" stroke-linecap="round" stroke-linejoin="round" stroke-width="1.5"/>
            <path d="m74.324,149.058c3.569,3.08,3.436,5.276,3.476,6.431.069,1.964-1.254,2.516-2.456,1.62-1.598-1.192-3.734-3.811-4.752-4.267-2.114-.946-5.805-1.695-5.805-1.695" fill="none" stroke="#000" stroke-linecap="round" stroke-linejoin="round" stroke-width="1.5"/>
          </g>
          <path d="m41.346,164.589L4.584,235.424c-3.573,5.694-4.878,12.895-2.932,19.88,3.668,13.163,17.313,20.86,30.476,17.192l1.429-.398" fill="#008a1e"/>
          <path d="m33.557,272.098l-1.429.398c-13.163,3.668-26.808-4.029-30.476-17.192-1.947-6.986-.642-14.187,2.932-19.88l36.762-70.835,37.165,20.562-24.888,48.614" stroke="#fff" stroke-linecap="round" stroke-linejoin="round" stroke-width="1.5"/>
          <path d="m111.253,159.224l86.746,11.195c14.366,1.885,22.73,12.57,22.749,21.751.021,10.464-9.451,19.479-9.52,20.195-.989,10.291-17.685,93.106-17.685,93.106l-102.806-11.603,6.915-88.663" stroke="#fff" stroke-linecap="round" stroke-linejoin="round" stroke-width="1.5"/>
          <g>
            <g>
              <path d="m116.313,212.01c-2.594-8.935,1.834-14.635,3.065-16.768,2.352-4.074,2.162-9.506,2.523-13.868.365-4.417,1.275-7.74,2.902-7.768,5.214-.091,8.438,18.247,12.127,34.932,3.346,15.134,8.687,19.416,8.687,19.416l-16.591,3.029" fill="#fff" stroke="#000" stroke-linecap="round" stroke-linejoin="round" stroke-width="1.5"/>
              <path d="m124.194,204.645l-.903-54.435c-.029-1.769-1.48-3.183-3.249-3.167l-21.151.19c-1.75.016-3.167,1.426-3.191,3.176l-.727,52.902c-.024,1.722,1.311,3.158,3.03,3.259l22.781,1.344c1.871.11,3.441-1.394,3.41-3.268Z" fill="#008a1e" stroke="#000" stroke-linecap="round" stroke-linejoin="round" stroke-width="1.5"/>
              <polygon points="99.186 171.372 114.96 179.422 127.622 186.272 129.303 213.53 116.861 217.569 107.326 208.369 99.912 198.242 99.186 171.372" fill="#fff"/>
              <path d="m98.997,178.037c-5.007-5.636-12.858-9.024-9.502-13.093,2.388-2.894,35.334,19.668,35.334,19.668" fill="#fff" stroke="#000" stroke-linecap="round" stroke-linejoin="round" stroke-width="1.5"/>
              <path d="m108.069,183.493l-10.516-6.583c-.698-.585-1.601-.792-2.481-.566-.875.226-1.563.84-1.888,1.685l-.179.466c-.445,1.159-.349,3.5.698,4.358.347.285.726.568,1.116.847-.881.381-1.684,1.199-2.038,2.121l-.179.465c-.394,1.025-.481,3.359.757,4.167l.227.148c.22.144.451.294.687.446-.366.314-1.759,1.619-1.776,3.301-.011,1.044.655,1.834,1.506,2.83,1.397,1.636,34.835,35.123,34.835,35.123" fill="#fff" stroke="#000" stroke-linecap="round" stroke-linejoin="round" stroke-width="1.5"/>
            </g>
            <line x1="94.439" y1="183.449" x2="106.005" y2="190.017" fill="#fff" stroke="#000" stroke-linecap="round" stroke-linejoin="round" stroke-width="1.5"/>
            <line x1="94.274" y1="191.048" x2="103.977" y2="197.178" fill="#fff" stroke="#000" stroke-linecap="round" stroke-linejoin="round" stroke-width="1.5"/>
          </g>
          <path d="m107.801,217.494l77.918,81.509c4.507,2.897,9.989,4.379,15.738,3.856,13.711-1.248,20.976-14.821,22.566-28.084l2.355-75.071c-1.268-13.936-13.471-28.732-27.408-27.464-13.936,1.268-19.99,19.605-18.721,33.542l1.04,25.744-45.458-38.558"/>
          <path d="m204.721,172.048c14.192,4.374,20.799,17.385,21.704,27.326l-2.477,75.581.075.819c.343,13.875-8.856,25.837-22.566,27.084-5.749.523-11.232-.959-15.738-3.856l-77.918-81.509,29.08-24.35,61.469,53.667" fill="none" stroke="#fff" stroke-linecap="round" stroke-linejoin="round" stroke-width="1.5"/>
          <line x1="184.072" y1="234.192" x2="184.154" y2="218.977" fill="none" stroke="#fff" stroke-linecap="round" stroke-linejoin="round" stroke-width="1.5"/>
          <g>
            <g>
              <path d="m185.039,127.499c4.485.484,8.52-2.808,9.01-7.354.469-4.35-2.48-8.262-6.666-9.016-1.506-15.005-12.24-27.474-27.641-29.136-11.579-1.25-16.475,4.515-23.116,13.229-3.514,4.612-6.34,33.852-3.228,40.586,2.081,4.503,6.394,7.884,13.759,10.043l-1.768,17.018s-2.988,15.668,14.964,17.615c20.26,2.197,20.08-14.521,20.08-14.521,0,0,3.633-36.575,4.452-38.489.052.007.102.019.154.025Z" fill="#fff" stroke="#000" stroke-linecap="round" stroke-linejoin="round" stroke-width="1.5"/>
              <path d="m147.339,145.879s7.475,2.462,15.455-1.226" fill="#fff" stroke="#000" stroke-linecap="round" stroke-linejoin="round" stroke-width="1.5"/>
            </g>
            <path d="m161.303,111.209l.003-.142c.008-.207-.035-.399-.129-.578-.06-.186-.164-.347-.31-.483-.136-.146-.297-.25-.483-.31-.179-.094-.371-.137-.578-.129l-.399.054c-.254.071-.475.2-.662.386l-.235.304c-.136.234-.204.486-.205.757l-.003.142c-.008.207.035.399.129.578.06.186.164.347.31.483.136.146.297.25.483.31.179.094.371.137.578.129l.399-.054c.254-.071.475-.2.662-.386l.235-.304c.136-.234.204-.486.205-.757h0Z"/>
            <path d="m144.297,110.229l.003-.142c.008-.207-.035-.399-.129-.578-.06-.186-.164-.347-.31-.483-.136-.146-.297-.25-.483-.31-.179-.094-.371-.137-.578-.129l-.399.054c-.254.071-.475.2-.662.386l-.235.304c-.136.234-.204.486-.205.757l-.003.142c-.008.207.035.399.129.578.06.186.164.347.31.483.136.146.297.25.483.31.179.094.371.137.578.129l.399-.054c.254-.071.475-.2.662-.386l.235-.304c.136-.234.204-.486.205-.757h0Z"/>
            <path d="m146.961,117.165l-1.342,3.863c-.248.713.309,1.45,1.062,1.406l3.583-.207" fill="#fff" stroke="#000" stroke-linecap="round" stroke-linejoin="round" stroke-width="1.5"/>
            <path d="m137.7,105.806s3.945-3.659,7.675-1.615" fill="#fff" stroke="#000" stroke-linecap="round" stroke-linejoin="round" stroke-width="1.5"/>
            <path d="m162.74,144.773l-16.735,15.368,1.125-13.307s4.535.483,9.174-.343c4.638-.826,6.436-1.717,6.436-1.717Z" stroke="#000" stroke-linecap="round" stroke-linejoin="round" stroke-width="1.5"/>
            <path d="m157.573,104.193s4.906-1.503,6.733,1.648" fill="#fff" stroke="#000" stroke-linecap="round" stroke-linejoin="round" stroke-width="1.5"/>
            <path d="m128.691,98.835l36.222,2.934,5.31-6.307,2.569,7.495s2.057,9.284,13.577,8.256l-.407-17.028-8.743-14.101-27.362-3.078-11.562,3.453-9.604,18.377Z" stroke="#000" stroke-linecap="round" stroke-linejoin="round" stroke-width="1.5"/>
          </g>
        </g>
        <path d="m157.742,129.481s-2.125,4.125-7.5,2.25" fill="#fff" stroke="#000" stroke-linecap="round" stroke-linejoin="round" stroke-width="1.5"/>
      </g>
      <g>
        <line x1="197.746" y1="68.557" x2="222.379" y2="68.557" fill="#fff" stroke="#000" stroke-linecap="round" stroke-linejoin="round" stroke-width="1.5"/>
        <line x1="197.746" y1="77.402" x2="222.379" y2="77.402" fill="#fff" stroke="#000" stroke-linecap="round" stroke-linejoin="round" stroke-width="1.5"/>
        <line x1="197.746" y1="86.246" x2="222.379" y2="86.246" fill="#fff" stroke="#000" stroke-linecap="round" stroke-linejoin="round" stroke-width="1.5"/>
      </g>
      <path d="m453.362,78.262c-.395-2.793-2.214-5.009-5.018-5.314-3.255-.354-6.075,1.787-6.791,4.75-.716-2.963-3.536-5.105-6.791-4.75-2.804.305-4.623,2.521-5.018,5.314-.283,2,.382,3.851,1.608,5.172l10.201,10.714,10.201-10.714c1.226-1.322,1.891-3.172,1.608-5.172Z" fill="#fff" stroke="#000" stroke-linecap="round" stroke-linejoin="round" stroke-width="1.5"/>
      <g>
        <rect x="228.933" y="557.213" width="192.382" height="56.331" fill="#fff" stroke="#008a1e" stroke-linecap="round" stroke-linejoin="round" stroke-width="1.5"/>
        <rect x="278.175" y="579.028" width="93.898" height="12.703" fill="#fff" stroke="#000" stroke-linecap="round" stroke-linejoin="round" stroke-width="1.5"/>
      </g>
      <g>
        <circle cx="305.124" cy="478.241" r="5.255" fill="#fff" stroke="#000" stroke-linecap="round" stroke-linejoin="round" stroke-width="1.5"/>
        <circle cx="325.124" cy="478.241" r="5.255" fill="#008a1e" stroke="#000" stroke-linecap="round" stroke-linejoin="round" stroke-width="1.5"/>
        <circle cx="345.124" cy="478.241" r="5.255" fill="#fff" stroke="#000" stroke-linecap="round" stroke-linejoin="round" stroke-width="1.5"/>
      </g>
      <line x1="228.818" y1="512.401" x2="421.431" y2="512.401" fill="#fff" stroke="#000" stroke-linecap="round" stroke-linejoin="round" stroke-width="1.5"/>
      <line x1="268.818" y1="531.401" x2="381.431" y2="531.401" fill="#fff" stroke="#000" stroke-linecap="round" stroke-linejoin="round" stroke-width="1.5"/>
      <g>
        <path id="h_6_h" d="m520.637,179.144c1.224,5.889-2.96,8.206-3.177,12.059-.224,3.987,3.722,6.84,1.796,12.341-1.982,5.662-6.639,5.555-8.796,8.844-2.156,3.288-1.654,8.954-4.605,11.592-2.909,2.601-8.467,1.477-12.034,3.272-3.448,1.735-5.835,6.897-9.793,7.72s-8.206-2.96-12.059-3.177c-3.987-.224-8.636,3.022-12.341,1.796-3.758-1.243-5.555-6.639-8.844-8.796-3.288-2.156-7.364.084-11.592-4.605-3.028-3.357-1.477-8.467-3.272-12.034-1.735-3.448-6.428-4.093-7.72-9.793-.894-3.943,2.96-8.206,3.177-12.059.224-3.987-3.671-6.835-1.796-12.341,1.786-5.245,6.639-5.555,8.796-8.844s-.498-7.5,4.605-11.592c4.09-3.28,8.467-1.477,12.034-3.272,3.448-1.735,2.097-6.12,9.793-7.72,3.958-.823,8.886,4.304,12.739,4.521,3.987.224,6.294-4.608,11.661-3.141,5.845,1.598,5.555,6.639,8.844,8.796,3.288,2.156,8.166.268,11.592,4.605,4.141,5.242,1.262,9.573,3.057,13.14,1.735,3.448,6.839,3.415,7.935,8.687Z" fill="#fff" stroke="#000" stroke-linecap="round" stroke-linejoin="round" stroke-width="1.5"/>
        <g>
          <line x1="490.831" y1="172.401" x2="458.097" y2="205.135" fill="#fff" stroke="#000" stroke-linecap="round" stroke-linejoin="round" stroke-width="1.5"/>
          <circle cx="461.422" cy="176.764" r="6.581" fill="#fff" stroke="#000" stroke-linecap="round" stroke-linejoin="round" stroke-width="1.5"/>
          <circle cx="488.063" cy="200.208" r="6.581" fill="#fff" stroke="#000" stroke-linecap="round" stroke-linejoin="round" stroke-width="1.5"/>
        </g>
      </g>
    </g>
  </g>
</svg>