<?xml version="1.0" encoding="UTF-8"?>
<svg id="Layer_2" data-name="Layer 2" xmlns="http://www.w3.org/2000/svg" viewBox="0 0 847.935 734.702">
  <g id="Layer_1-2" data-name="Layer 1">
    <g>
      <g>
        <g>
          <g>
            <line x1=".75" y1=".75" x2="210.489" y2=".75" fill="none" stroke="#b7b7b7" stroke-linecap="round" stroke-linejoin="round" stroke-width="1.5"/>
            <line x1=".75" y1="35.772" x2="210.489" y2="35.772" fill="none" stroke="#b7b7b7" stroke-linecap="round" stroke-linejoin="round" stroke-width="1.5"/>
            <line x1=".75" y1="70.793" x2="210.489" y2="70.793" fill="none" stroke="#b7b7b7" stroke-linecap="round" stroke-linejoin="round" stroke-width="1.5"/>
            <line x1=".75" y1="105.815" x2="210.489" y2="105.815" fill="none" stroke="#b7b7b7" stroke-linecap="round" stroke-linejoin="round" stroke-width="1.5"/>
            <line x1=".75" y1="140.837" x2="210.489" y2="140.837" fill="none" stroke="#b7b7b7" stroke-linecap="round" stroke-linejoin="round" stroke-width="1.5"/>
            <line x1=".75" y1="175.859" x2="210.489" y2="175.859" fill="none" stroke="#b7b7b7" stroke-linecap="round" stroke-linejoin="round" stroke-width="1.5"/>
            <line x1=".75" y1="210.88" x2="210.489" y2="210.88" fill="none" stroke="#b7b7b7" stroke-linecap="round" stroke-linejoin="round" stroke-width="1.5"/>
            <line x1=".75" y1="245.902" x2="210.489" y2="245.902" fill="none" stroke="#b7b7b7" stroke-linecap="round" stroke-linejoin="round" stroke-width="1.5"/>
            <line x1=".75" y1="280.924" x2="210.489" y2="280.924" fill="none" stroke="#b7b7b7" stroke-linecap="round" stroke-linejoin="round" stroke-width="1.5"/>
          </g>
          <g>
            <line x1="211.076" y1=".75" x2="211.076" y2="280.924" fill="none" stroke="#b7b7b7" stroke-linecap="round" stroke-linejoin="round" stroke-width="1.5"/>
            <line x1="176.054" y1=".75" x2="176.054" y2="280.924" fill="none" stroke="#b7b7b7" stroke-linecap="round" stroke-linejoin="round" stroke-width="1.5"/>
            <line x1="141.033" y1=".75" x2="141.033" y2="280.924" fill="none" stroke="#b7b7b7" stroke-linecap="round" stroke-linejoin="round" stroke-width="1.5"/>
            <line x1="106.011" y1=".75" x2="106.011" y2="280.924" fill="none" stroke="#b7b7b7" stroke-linecap="round" stroke-linejoin="round" stroke-width="1.5"/>
            <line x1="70.989" y1=".75" x2="70.989" y2="280.924" fill="none" stroke="#b7b7b7" stroke-linecap="round" stroke-linejoin="round" stroke-width="1.5"/>
            <line x1="35.967" y1=".75" x2="35.967" y2="280.924" fill="none" stroke="#b7b7b7" stroke-linecap="round" stroke-linejoin="round" stroke-width="1.5"/>
            <line x1=".946" y1=".75" x2=".946" y2="280.924" fill="none" stroke="#b7b7b7" stroke-linecap="round" stroke-linejoin="round" stroke-width="1.5"/>
          </g>
        </g>
        <rect x="52.066" y="59.222" width="45.401" height="45.401" transform="translate(-13.509 14.775) rotate(-10.356)" fill="#fff" stroke="#b7b7b7" stroke-linecap="round" stroke-linejoin="round" stroke-width="1.5"/>
        <g>
          <rect x="132.815" y="163.859" width="59.087" height="59.087" transform="translate(78.026 -44.616) rotate(20.503)" fill="#fff" stroke="#b7b7b7" stroke-linecap="round" stroke-linejoin="round" stroke-width="1.5"/>
          <polyline points="135.62 201.88 156.228 193.402 157.841 200.365 177.359 193.402 177.359 217.793" fill="#fff" stroke="#b7b7b7" stroke-linecap="round" stroke-linejoin="round" stroke-width="1.5"/>
          <circle cx="165.228" cy="183.359" r="2.87" fill="#fff" stroke="#b7b7b7" stroke-linecap="round" stroke-linejoin="round" stroke-width="1.5"/>
        </g>
        <g>
          <line x1="55.963" y1="72.877" x2="77.202" y2="68.842" stroke="#b7b7b7" stroke-linecap="round" stroke-linejoin="round" stroke-width="1.5"/>
          <line x1="57.29" y1="78.66" x2="86.015" y2="73.202" stroke="#b7b7b7" stroke-linecap="round" stroke-linejoin="round" stroke-width="1.5"/>
          <line x1="58.659" y1="84.466" x2="89.706" y2="78.568" stroke="#b7b7b7" stroke-linecap="round" stroke-linejoin="round" stroke-width="1.5"/>
          <line x1="59.712" y1="90.556" x2="84.254" y2="85.893" stroke="#b7b7b7" stroke-linecap="round" stroke-linejoin="round" stroke-width="1.5"/>
        </g>
      </g>
      <g>
        <g>
          <line x1="224.372" y1="499.517" x2="195.972" y2="733.952" fill="#fffdfd" stroke="#008a1e" stroke-linecap="round" stroke-linejoin="round" stroke-width="1.5"/>
          <line x1="501.803" y1="499.517" x2="530.204" y2="733.952" fill="#fffdfd" stroke="#008a1e" stroke-linecap="round" stroke-linejoin="round" stroke-width="1.5"/>
        </g>
        <rect x="169.541" y="56.106" width="387.094" height="462.327" fill="#008a1e" stroke="#008a1e" stroke-linecap="round" stroke-linejoin="round" stroke-width="1.5"/>
        <rect x="169.541" y="47.033" width="387.094" height="462.327" fill="#fff" stroke="#008a1e" stroke-linecap="round" stroke-linejoin="round" stroke-width="1.5"/>
      </g>
      <g>
        <path d="m274.107,101.804h-.01c-40.53,0-74.11,29.8-80.02,68.7-.61,3.99-.92,8.08-.92,12.24,0,19.64,6.99,37.64,18.62,51.65,14.84,17.91,37.25,29.32,62.32,29.32,16.81,0,32.42-5.12,45.36-13.9h.01c1.85-1.25,3.64-2.58,5.37-3.98,9.22-7.41,16.78-16.81,22.03-27.54,5.25-10.73,8.2-22.79,8.2-35.55,0-44.7-36.24-80.94-80.96-80.94Zm26.61,119.91c-.06.03-.12.08-.19.11-7.53,5.11-16.63,8.11-26.43,8.11-14.61,0-27.66-6.64-36.32-17.08-6.78-8.16-10.85-18.66-10.85-30.11,0-2.43.18-4.81.53-7.13,3.45-22.67,23.02-40.04,46.64-40.04h.01c13.03,0,24.83,5.28,33.36,13.82,8.54,8.53,13.82,20.33,13.82,33.35,0,16.2-8.15,30.47-20.57,38.97Z" fill="#fff" stroke="#000" stroke-linecap="round" stroke-linejoin="round" stroke-width="1.5"/>
        <g>
          <path d="m319.457,249.814c-12.94,8.78-28.55,13.9-45.36,13.9-25.07,0-47.48-11.41-62.32-29.32l26-21.54c8.66,10.44,21.71,17.08,36.32,17.08,9.8,0,18.9-3,26.43-8.11l18.93,27.99Z" stroke="#000" stroke-linecap="round" stroke-linejoin="round" stroke-width="1.5"/>
          <path d="m237.777,212.854l-26,21.54c-11.63-14.01-18.62-32.01-18.62-51.65,0-4.16.31-8.25.92-12.24l33.38,5.11c-.35,2.32-.53,4.7-.53,7.13,0,11.45,4.07,21.95,10.85,30.11Z" fill="#008a1e" stroke="#000" stroke-linecap="round" stroke-linejoin="round" stroke-width="1.5"/>
        </g>
        <rect x="389.382" y="113.191" width="32.292" height="32.292" fill="#008a1e" stroke="#000" stroke-linecap="round" stroke-linejoin="round" stroke-width="1.5"/>
        <rect x="389.382" y="163.326" width="32.292" height="32.292" fill="#fff" stroke="#000" stroke-linecap="round" stroke-linejoin="round" stroke-width="1.5"/>
        <rect x="389.382" y="213.462" width="32.292" height="32.292" stroke="#000" stroke-linecap="round" stroke-linejoin="round" stroke-width="1.5"/>
        <rect x="439.07" y="113.191" width="95.967" height="9.291" fill="#fff" stroke="#000" stroke-linecap="round" stroke-linejoin="round" stroke-width="1.5"/>
        <rect x="439.07" y="136.191" width="64.288" height="9.291" fill="#fff" stroke="#000" stroke-linecap="round" stroke-linejoin="round" stroke-width="1.5"/>
        <rect x="439.07" y="163.326" width="95.967" height="9.291" fill="#fff" stroke="#000" stroke-linecap="round" stroke-linejoin="round" stroke-width="1.5"/>
        <rect x="439.07" y="186.327" width="75.469" height="9.291" fill="#fff" stroke="#000" stroke-linecap="round" stroke-linejoin="round" stroke-width="1.5"/>
        <rect x="439.07" y="213.462" width="95.967" height="9.291" fill="#fff" stroke="#000" stroke-linecap="round" stroke-linejoin="round" stroke-width="1.5"/>
        <rect x="439.07" y="236.462" width="47.983" height="9.291" fill="#fff" stroke="#000" stroke-linecap="round" stroke-linejoin="round" stroke-width="1.5"/>
        <rect x="191.108" y="294.099" width="345.977" height="170.93" fill="#fff" stroke="#008a1e" stroke-linecap="round" stroke-linejoin="round" stroke-width="1.5"/>
        <g>
          <polyline points="506.749 339.112 463.116 366.783 400.243 336.105 338.196 394.924 280.429 358.883 216.099 428.372" fill="#fff" stroke="#000" stroke-linecap="round" stroke-linejoin="round" stroke-width="1.5"/>
          <circle cx="216.099" cy="428.297" r="7.79" fill="#008a1e" stroke="#000" stroke-linecap="round" stroke-linejoin="round" stroke-width="1.5"/>
          <circle cx="278.469" cy="359.941" r="7.79" fill="#008a1e" stroke="#000" stroke-linecap="round" stroke-linejoin="round" stroke-width="1.5"/>
          <circle cx="337.067" cy="395.204" r="7.79" fill="#008a1e" stroke="#000" stroke-linecap="round" stroke-linejoin="round" stroke-width="1.5"/>
          <circle cx="401.222" cy="337.4" r="7.79" fill="#008a1e" stroke="#000" stroke-linecap="round" stroke-linejoin="round" stroke-width="1.5"/>
          <circle cx="463.246" cy="366.435" r="7.79" fill="#008a1e" stroke="#000" stroke-linecap="round" stroke-linejoin="round" stroke-width="1.5"/>
          <circle cx="506.749" cy="339.112" r="7.79" fill="#008a1e" stroke="#000" stroke-linecap="round" stroke-linejoin="round" stroke-width="1.5"/>
        </g>
      </g>
      <g>
        <path id="bl" d="m750.457,733.952l67.829-52.73-21.709-26.079-41.91,26.076s10.055,16.734-1.195,27.08c-17.75,16.334-3.015,25.654-3.015,25.654Z" stroke="#fff" stroke-linecap="round" stroke-linejoin="round" stroke-width="1.5"/>
        <path id="l" d="m608.827,526.83l140.3,166.46,59.93-45.09-133.72-163.04,26.529-161.678-73.376-.9-31.933,155.438c-2.67,17.17,1.8,34.95,12.27,48.81Z" fill="#fcfcfc"/>
        <line id="st" x1="797.472" y1="632.484" x2="736.82" y2="677.093" fill="none" stroke="#000" stroke-linecap="round" stroke-linejoin="round" stroke-width="1.5"/>
        <path id="st-2" data-name="st" d="m694.553,352.742l-19.191,132.429,133.607,162.91-59.757,45.322-140.312-166.476c-10.552-13.913-15.042-31.785-12.318-49.034l31.908-155.312" fill="none" stroke="#000" stroke-linecap="round" stroke-linejoin="round" stroke-width="1.5"/>
        <path id="bl-2" data-name="bl" d="m730.079,699.657l.779,33.913h-78.98s-5.238-16.694,19.232-18.733c15.503-1.292,11.166-16.795,11.166-16.795" stroke="#fff" stroke-linecap="round" stroke-linejoin="round" stroke-width="1.5"/>
        <polyline id="l-2" data-name="l" points="670.102 322.477 667.144 705.173 742.279 705.267 748.162 322.832" fill="#fcfcfc"/>
        <polyline id="st-3" data-name="st" points="668.623 366.626 667.144 705.173 742.279 705.267 747.322 322.83" fill="none" stroke="#000" stroke-linecap="round" stroke-linejoin="round" stroke-width="1.5"/>
        <line id="st-4" data-name="st" x1="667.144" y1="686.093" x2="742.534" y2="686.093" fill="none" stroke="#000" stroke-linecap="round" stroke-linejoin="round" stroke-width="1.5"/>
        <path id="h_1_sh" d="m701.385,163.409l-11.105,19.702-3.191-13.505s4.867-.579,8.999-2.778c4.133-2.198,5.297-3.419,5.297-3.419Z" stroke="#000" stroke-linecap="round" stroke-linejoin="round" stroke-width="1.5"/>
        <ellipse id="h_1_h" cx="681.078" cy="111.105" rx="29.047" ry="29.199" transform="translate(-8.356 140.977) rotate(-11.746)" fill="#008a1e" stroke="#000" stroke-linecap="round" stroke-linejoin="round" stroke-width="1.5"/>
        <path id="h_1_sk" d="m702.46,138.647c4.483-.069,8.052-3.826,7.972-8.39-.076-4.368-3.469-7.884-7.689-8.118-3.344-14.685-15.473-25.728-30.864-25.489-11.571.179-15.685,6.491-21.153,15.94-2.894,5-2.056,34.323,1.846,40.615,2.61,4.207,7.281,7.03,14.81,8.268l.365,17.081s-.986,16.491,16.937,15.624c18.18-.879,17.999-16.849,17.999-16.849,0,0-.527-36.479-.38-38.687.052,0,.103.006.155.006Z" fill="#fffdfd" stroke="#000" stroke-linecap="round" stroke-linejoin="round" stroke-width="1.5"/>
        <path id="h_1_h-2" data-name="h_1_h" d="m683.097,87.065c-.989-8.197-8.005-14.492-16.399-14.362-6.074.094-11.302,3.534-13.999,8.541-2.236-.893-4.678-1.372-7.232-1.332-10.381.161-18.649,8.748-18.467,19.179.182,10.431,8.745,18.757,19.125,18.596,6.085-.094,11.428-3.096,14.784-7.655l27.869.096s-2.369,11.2,7.974,16.193l1.443,7.289c.071.36.389.617.756.611l2.096-.032c.375-.006.689-.284.74-.656l1.709-12.469-1.39-12.863c-1.015-9.394-7.432-17.325-16.407-20.278l-2.604-.857Z" fill="#008a1e"/>
        <path id="h_1_st" d="m683.097,87.065c-.215-1.781-.714-3.472-1.45-5.027-2.652-5.602-8.378-9.437-14.949-9.335-6.074.094-11.302,3.534-13.999,8.541-2.236-.893-4.678-1.372-7.232-1.332-10.381.161-18.649,8.748-18.467,19.179.182,10.431,8.745,18.757,19.125,18.596,6.085-.094,11.428-3.096,14.784-7.655l27.869.096s-2.369,11.2,7.974,16.193l1.443,7.289c.071.36.389.617.756.611l2.096-.032c.375-.006.689-.284.74-.656l1.554-11.334" fill="none" stroke="#000" stroke-linecap="round" stroke-linejoin="round" stroke-width="1.5"/>
        <path id="h_1_sh-2" data-name="h_1_sh" d="m682.653,158.37l-14.944,16.975-.326-13.873s4.881.441,9.379-.854c4.498-1.295,5.89-2.248,5.89-2.248Z" stroke="#000" stroke-linecap="round" stroke-linejoin="round" stroke-width="1.5"/>
        <g id="e_4_eye">
          <path d="m674.942,124.604l-.014-.141c.008-.207-.035-.399-.129-.578-.06-.186-.164-.347-.31-.483-.136-.146-.297-.25-.483-.31-.179-.094-.371-.137-.578-.129l-.399.054c-.254.071-.475.2-.662.386l-.235.304c-.136.234-.204.486-.205.757l.014.141c-.008.207.035.399.129.578.06.186.164.347.31.483.136.146.297.25.483.31.179.094.371.137.578.129l.399-.054c.254-.071.475-.2.662-.386l.235-.304c.136-.234.204-.486.205-.757h0Z"/>
        </g>
        <g id="e_4_eye-2" data-name="e_4_eye">
          <path d="m657.505,125.831l-.014-.141c.008-.207-.035-.399-.129-.578-.06-.186-.164-.347-.31-.483-.136-.146-.297-.25-.483-.31-.179-.094-.371-.137-.578-.129l-.399.054c-.254.071-.475.2-.662.386l-.235.304c-.136.234-.204.486-.205.757l.014.141c-.008.207.035.399.129.578.06.186.164.347.31.483.136.146.297.25.483.31.179.094.371.137.578.129l.399-.054c.254-.071.475-.2.662-.386l.235-.304c.136-.234.204-.486.205-.757h0Z"/>
        </g>
        <path id="e_4_st" d="m663.636,133.068l-.844,3.993c-.156.737.484,1.399,1.222,1.263l3.507-.644" fill="none" stroke="#000" stroke-linecap="round" stroke-linejoin="round" stroke-width="1.5"/>
        <path id="e_4_st-2" data-name="e_4_st" d="m672.488,119.981s5.042-1.777,7.637,1.581" fill="none" stroke="#000" stroke-linecap="round" stroke-linejoin="round" stroke-width="1.5"/>
        <path id="e_4_st-3" data-name="e_4_st" d="m678.294,141.41s-1.512,5.494-8.416,4.575" fill="none" stroke="#000" stroke-linecap="round" stroke-linejoin="round" stroke-width="1.5"/>
        <path id="e_4_st-4" data-name="e_4_st" d="m652.893,122.012s3.889-3.176,7.644-1.223" fill="none" stroke="#000" stroke-linecap="round" stroke-linejoin="round" stroke-width="1.5"/>
        <path id="bl-3" data-name="bl" d="m761.832,305.172c-4.57,1.47-9.25,1.54-13.59.48-.04,10.28-.08,17.18-.08,17.18l-120.4-.25.98-22.55-4.69,11.11c-4.58,8.8-14.1,13.38-23.4,12.16l-97.821-14.448,6.75-35.716,77.311.454,31.149-75.523c1.673-4.056,4.059-7.812,7.227-10.848,4.525-4.336,10.264-7.27,16.155-7.92,0,0,2.7-.16,3.7-.1l22.62-.29c-.02,2.42.6,16.05,16.94,15.27,15.23-.73,17.57-12.06,17.93-15.72l26.5-.34c9.11-.1,17.34,2.58,22.11,7.29,4.54,4.48,7.29,11.51,9.31,17.78l17.16,69.73.25.79c4.24,13.14-2.98,27.22-16.11,31.46Z"/>
        <line id="st-5" data-name="st" x1="628.68" y1="301.346" x2="631.588" y2="233.973" fill="none" stroke="#feffff" stroke-linecap="round" stroke-linejoin="round" stroke-width="1.5"/>
        <g id="laptop">
          <rect id="bl-4" data-name="bl" x="459.325" y="269.579" width="169.355" height="5.569" rx="2.784" ry="2.784" transform="translate(1088.006 544.728) rotate(-180)" fill="#008a1e" stroke="#000" stroke-linecap="round" stroke-linejoin="round" stroke-width="1.5"/>
          <path id="bl-5" data-name="bl" d="m457.576,275.148h111.555c2.712,0,4.732-2.504,4.158-5.155l-17.683-81.618c-.414-1.909-2.102-3.271-4.055-3.271h-108.339c-2.645,0-4.615,2.442-4.055,5.028l18.419,85.016Z" stroke="#000" stroke-linecap="round" stroke-linejoin="round" stroke-width="1.5"/>
          <path id="b" d="m459.877,275.148h106.249c3.297,0,5.751-3.043,5.053-6.265l-17.442-80.508c-.414-1.909-2.102-3.271-4.055-3.271h-109.278c-2.162,0-3.773,1.996-3.315,4.11l17.735,81.858c.515,2.378,2.62,4.076,5.053,4.076Z" fill="#008a1e" stroke="#000" stroke-linecap="round" stroke-linejoin="round" stroke-width="1.5"/>
          <circle id="b-2" data-name="b" cx="502.306" cy="230.259" r="7.881" fill="#fff" stroke="#000" stroke-linecap="round" stroke-linejoin="round" stroke-width="1.5"/>
        </g>
        <g id="ha">
          <path id="sk" d="m509.363,277.467s-16.096-2.716-20.58-5.03c-2.027-1.046-5.845-5.776-7.514-7.799-1.67-2.023-4.688-2.933-4.587-.749.018.379.343,1.209.806,2.208-.198-.244-.379-.479-.527-.695-3.928-5.73-7.37-5.704-7.286-3.359.015.413.332,1.264.829,2.345-2.242-2.579-4.557-4.332-6.314-2.735-.745.677.396,3.189,2.057,6.166-.352-.311-.709-.583-1.065-.797-1.12-.674-2.395-.39-2.404.453-.031,2.916,4.546,12.592,12.306,19.447,1.305,1.153,4.144,2.978,7.565,5.014-2.573.435-5.206,1.333-5.889,3.18-1.029,2.782,1.737,3.031,8.362,2.328,1.86-.197,5.067.08,7.971.433,6.156,3.39,11.45,6.16,11.45,6.16l4.817-26.57Z" fill="#fffdfd"/>
          <path id="st-6" data-name="st" d="m493.433,297.637s-4.298-.62-8.309-.194c-6.625.703-9.391.455-8.362-2.327,1.436-3.885,11.493-3.577,11.493-3.577" fill="none" stroke="#000" stroke-linecap="round" stroke-linejoin="round" stroke-width="1.5"/>
          <path id="st-7" data-name="st" d="m504.233,304.037s-24.428-12.947-29.148-17.116c-7.76-6.855-13.195-16.875-12.306-19.447.348-1.008,1.284-1.127,2.404-.453.283.17.567.377.848.611" fill="#fff" stroke="#000" stroke-linecap="round" stroke-linejoin="round" stroke-width="1.5"/>
          <path id="st-8" data-name="st" d="m480.787,285.239s-2.137-1.405-3.506-2.343c-2.522-1.728-5.392-5.456-7.692-9.365-2.885-4.903-6.811-10.468-5.4-11.879,1.766-1.766,3.941-.086,6.314,2.735" fill="none" stroke="#000" stroke-linecap="round" stroke-linejoin="round" stroke-width="1.5"/>
          <path id="st-9" data-name="st" d="m483.758,281.025s-3.822-2.552-5.328-4.038c-2.77-2.734-8.689-13.091-8.756-14.944-.085-2.345,3.358-2.37,7.286,3.359.149.217.326.45.525.696" fill="none" stroke="#000" stroke-linecap="round" stroke-linejoin="round" stroke-width="1.5"/>
          <path id="st-10" data-name="st" d="m486.715,277.176s-5.069-3.497-6.035-5.08c-.967-1.583-3.943-7.036-3.997-8.208-.102-2.184,2.917-1.274,4.587.749,1.67,2.023,5.487,6.753,7.514,7.799,4.484,2.314,20.58,5.03,20.58,5.03l-5.13,26.57" fill="none" stroke="#000" stroke-linecap="round" stroke-linejoin="round" stroke-width="1.5"/>
        </g>
        <g id="ha-2" data-name="ha">
          <path id="sk-2" data-name="sk" d="m605.868,229.909c5.457-.253,9.415-.246,14.048.117-.852,1.131-1.814,2.461-2.571,3.653-.367.578-.563,1.751-.656,3.041-2.085-.326-3.491-.076-4.587,1.28-1.175,1.453,1.143,3.003,4.815,4.743.67,3.198,2.254,3.285,3.389,1.523.86.373,1.747.755,2.651,1.147,3.793,1.644,26.778,16.813,26.778,16.813l26.028-22.914c-6.482-2.483-37.818-14.395-44.958-15.338-13.112-1.732-22.544,1.06-25.86,2.757-1.558.797-.585,3.248.924,3.178Z" fill="#fffdfd"/>
          <path id="st-11" data-name="st" d="m616.793,242.686c-3.604-1.717-5.854-3.248-4.692-4.686,1.081-1.337,2.461-1.6,4.499-1.295" fill="none" stroke="#000" stroke-linecap="round" stroke-linejoin="round" stroke-width="1.5"/>
          <path id="st-12" data-name="st" d="m619.707,230.005c-4.547-.347-8.46-.345-13.839-.096-1.509.07-2.482-2.381-.924-3.178,3.316-1.697,12.748-4.489,25.86-2.757,7.14.943,38.477,12.855,44.958,15.338l-26.028,22.914s-22.986-15.17-26.778-16.813c-.867-.376-1.721-.742-2.547-1.101" fill="none" stroke="#000" stroke-linecap="round" stroke-linejoin="round" stroke-width="1.5"/>
          <path id="st-13" data-name="st" d="m621.982,227.374s-2.874,3.53-4.638,6.304c-.926,1.456-.772,6.691-.596,8.074.603,4.746,2.836,4.446,4.04,1.584,1.131-2.69.753-5.084,2.13-7.451" fill="none" stroke="#000" stroke-linecap="round" stroke-linejoin="round" stroke-width="1.5"/>
          <path id="st-14" data-name="st" d="m627.579,228.068s-3.016,4.351-4.479,7.346c-.757,1.551-.285,6.313.201,7.62.745,2.006,1.534,2.809,2.87,2.042,1.907-1.094.73-5.591,2.107-7.958,1.285-2.208,5.35-7.839,5.35-7.839" fill="none" stroke="#000" stroke-linecap="round" stroke-linejoin="round" stroke-width="1.5"/>
          <path id="st-15" data-name="st" d="m630.318,234.155c-1.449,4.486-.195,6.293.37,7.301.962,1.714,2.379,1.498,2.94.108.746-1.848,1.211-5.196,1.845-6.114,1.315-1.907,4.081-4.464,4.081-4.464" fill="none" stroke="#000" stroke-linecap="round" stroke-linejoin="round" stroke-width="1.5"/>
        </g>
        <path id="bl-6" data-name="bl" d="m748.235,305.667c-.899-.22-1.783-.489-2.649-.805l-98.804-38.844,12.807-39.216,65.515,21.499,23.061,7.353"/>
        <path id="st-16" data-name="st" d="m748.235,305.667c-.899-.22-1.783-.489-2.649-.805l-98.804-38.844,12.807-39.216,65.515,21.499,23.061,7.353" fill="none" stroke="#feffff" stroke-linecap="round" stroke-linejoin="round" stroke-width="1.5"/>
        <line id="st-17" data-name="st" x1="726.291" y1="248.68" x2="720.316" y2="227.434" fill="none" stroke="#feffff" stroke-linecap="round" stroke-linejoin="round" stroke-width="1.5"/>
      </g>
      <line x1="3.069" y1="733.952" x2="847.185" y2="733.952" fill="none" stroke="#000" stroke-linecap="round" stroke-linejoin="round" stroke-width="1.5"/>
      <g>
        <polygon points="98.548 733.952 52.181 733.952 44.817 581.013 105.913 581.013 98.548 733.952" fill="#fff" stroke="#000" stroke-linecap="round" stroke-linejoin="round" stroke-width="1.5"/>
        <path d="m79.688,581.013s2.594-74.93,55.333-99.138c0,0,2.161,16.859-12.104,31.125-14.265,14.265-16.156,15.585-17.003,31.125-.648,11.888-10.465,15.142-15.851,14.698-1.807-.149-7.208-.796-7.208-.796" fill="#fff" stroke="#000" stroke-linecap="round" stroke-linejoin="round" stroke-width="1.5"/>
        <path d="m70.989,581.555s-1.782-30.859-2.613-41.128c-2.289-28.291-18.559-73.035-61.506-95.431,0,0-1.088,16.962,14.053,30.295,15.141,13.332,17.956,14.453,18.942,29.984.987,15.531,16.75,13.663,16.75,13.663l7.628-.814s2.428,6.745,4.133,22.303" fill="#fff" stroke="#000" stroke-linecap="round" stroke-linejoin="round" stroke-width="1.5"/>
        <path d="m75.365,581.013c0-5.187,1.153-107.207,20.75-145.248" fill="none" stroke="#000" stroke-linecap="round" stroke-linejoin="round" stroke-width="1.5"/>
        <circle cx="96.115" cy="436.086" r="7.493" fill="#fff" stroke="#000" stroke-linecap="round" stroke-linejoin="round" stroke-width="1.5"/>
      </g>
    </g>
  </g>
</svg>