<?xml version="1.0" encoding="UTF-8"?>
<svg id="Layer_2" data-name="Layer 2" xmlns="http://www.w3.org/2000/svg" viewBox="0 0 772.302 702.999">
  <g id="Layer_1-2" data-name="Layer 1">
    <g>
      <g>
        <g>
          <rect x="570.012" y="679.994" width="19.483" height="22.254" fill="#fff" stroke="#b7b7b7" stroke-linecap="round" stroke-linejoin="round" stroke-width="1.5"/>
          <rect x="691.479" y="679.994" width="19.483" height="22.254" fill="#fff" stroke="#b7b7b7" stroke-linecap="round" stroke-linejoin="round" stroke-width="1.5"/>
        </g>
        <g>
          <rect x="552.167" y="479.786" width="176.64" height="212.191" fill="#fff" stroke="#b7b7b7" stroke-linecap="round" stroke-linejoin="round" stroke-width="1.5"/>
          <rect x="559.483" y="487.102" width="162.008" height="60.976" fill="#fff" stroke="#b7b7b7" stroke-linecap="round" stroke-linejoin="round" stroke-width="1.5"/>
          <rect x="559.483" y="555.394" width="162.008" height="60.976" fill="#fff" stroke="#b7b7b7" stroke-linecap="round" stroke-linejoin="round" stroke-width="1.5"/>
          <rect x="559.483" y="623.685" width="162.008" height="60.976" fill="#fff" stroke="#b7b7b7" stroke-linecap="round" stroke-linejoin="round" stroke-width="1.5"/>
          <line x1="610.4" y1="517.59" x2="670.574" y2="517.59" fill="#fff" stroke="#b7b7b7" stroke-linecap="round" stroke-linejoin="round" stroke-width="1.5"/>
          <line x1="610.4" y1="585.882" x2="670.574" y2="585.882" fill="#fff" stroke="#b7b7b7" stroke-linecap="round" stroke-linejoin="round" stroke-width="1.5"/>
          <line x1="610.4" y1="654.173" x2="670.574" y2="654.173" fill="#fff" stroke="#b7b7b7" stroke-linecap="round" stroke-linejoin="round" stroke-width="1.5"/>
        </g>
      </g>
      <g>
        <g>
          <rect x="610.402" y="445.938" width="13.98" height="53.716" transform="translate(144.596 1090.188) rotate(-90)" fill="#fff" stroke="#b7b7b7" stroke-linecap="round" stroke-linejoin="round" stroke-width="1.5"/>
          <rect x="621.496" y="434.864" width="8.168" height="53.716" transform="translate(163.858 1087.302) rotate(-90)" fill="#fff" stroke="#b7b7b7" stroke-linecap="round" stroke-linejoin="round" stroke-width="1.5"/>
          <rect x="621.782" y="417.474" width="8.168" height="53.716" transform="translate(430.827 1186.692) rotate(-110.652)" fill="#fff" stroke="#b7b7b7" stroke-linecap="round" stroke-linejoin="round" stroke-width="1.5"/>
        </g>
        <path d="m685.547,414.198h0c0-1.162-.942-2.104-2.104-2.104h-13.251c-1.228,0-2.224.996-2.224,2.224h0c0,6.421-3.076,12.385-8.133,16.342-6.681,5.227-10.882,13.477-10.539,22.695.528,14.175,11.983,25.743,26.152,26.401,15.773.732,28.79-11.839,28.79-27.451,0-8.774-4.114-16.584-10.517-21.613-5.09-3.998-8.175-10.021-8.175-16.494Z" fill="#fff" stroke="#b7b7b7" stroke-linecap="round" stroke-linejoin="round" stroke-width="1.5"/>
      </g>
      <g>
        <rect x="523.872" y="50.887" width="247.68" height="303.767" fill="#fcfcfc" stroke="#b7b7b7" stroke-linecap="round" stroke-linejoin="round" stroke-width="1.5"/>
        <g>
          <rect x="572.067" y="119.657" width="121.004" height="121.118" fill="#fff" stroke="#b7b7b7" stroke-linecap="round" stroke-linejoin="round" stroke-width="1.5"/>
          <g>
            <rect x="670.998" y="130.214" width="11.517" height="16.124" transform="translate(1353.513 276.551) rotate(-180)" fill="#fff" stroke="#b7b7b7" stroke-linecap="round" stroke-linejoin="round" stroke-width="1.5"/>
            <rect x="648.924" y="130.214" width="11.517" height="16.124" transform="translate(1309.365 276.551) rotate(-180)" fill="#fff" stroke="#b7b7b7" stroke-linecap="round" stroke-linejoin="round" stroke-width="1.5"/>
            <rect x="626.85" y="130.214" width="11.517" height="16.124" transform="translate(1265.217 276.551) rotate(-180)" fill="#fff" stroke="#b7b7b7" stroke-linecap="round" stroke-linejoin="round" stroke-width="1.5"/>
            <rect x="604.777" y="130.214" width="11.517" height="16.124" transform="translate(1221.07 276.551) rotate(-180)" fill="#fff" stroke="#b7b7b7" stroke-linecap="round" stroke-linejoin="round" stroke-width="1.5"/>
            <rect x="582.703" y="130.214" width="11.517" height="16.124" transform="translate(1176.922 276.551) rotate(-180)" fill="#fff" stroke="#b7b7b7" stroke-linecap="round" stroke-linejoin="round" stroke-width="1.5"/>
            <rect x="582.624" y="158.378" width="11.517" height="16.124" transform="translate(1176.765 332.879) rotate(-180)" fill="#fff" stroke="#b7b7b7" stroke-linecap="round" stroke-linejoin="round" stroke-width="1.5"/>
            <rect x="582.781" y="186.35" width="11.517" height="16.124" transform="translate(1177.079 388.823) rotate(-180)" fill="#fff" stroke="#b7b7b7" stroke-linecap="round" stroke-linejoin="round" stroke-width="1.5"/>
            <rect x="604.698" y="158.378" width="11.517" height="16.124" transform="translate(1220.913 332.879) rotate(-180)" fill="#fff" stroke="#b7b7b7" stroke-linecap="round" stroke-linejoin="round" stroke-width="1.5"/>
            <rect x="604.855" y="186.35" width="11.517" height="16.124" transform="translate(1221.227 388.823) rotate(-180)" fill="#fff" stroke="#b7b7b7" stroke-linecap="round" stroke-linejoin="round" stroke-width="1.5"/>
            <rect x="626.772" y="158.378" width="11.517" height="16.124" transform="translate(1265.06 332.879) rotate(-180)" fill="#fff" stroke="#b7b7b7" stroke-linecap="round" stroke-linejoin="round" stroke-width="1.5"/>
            <rect x="626.929" y="186.35" width="11.517" height="16.124" transform="translate(1265.374 388.823) rotate(-180)" fill="#fff" stroke="#b7b7b7" stroke-linecap="round" stroke-linejoin="round" stroke-width="1.5"/>
            <rect x="648.846" y="158.378" width="11.517" height="16.124" transform="translate(1309.208 332.879) rotate(-180)" fill="#fff" stroke="#b7b7b7" stroke-linecap="round" stroke-linejoin="round" stroke-width="1.5"/>
            <rect x="649.003" y="186.35" width="11.517" height="16.124" transform="translate(1309.522 388.823) rotate(-180)" fill="#fff" stroke="#b7b7b7" stroke-linecap="round" stroke-linejoin="round" stroke-width="1.5"/>
            <rect x="670.998" y="158.378" width="11.517" height="16.124" transform="translate(1353.513 332.879) rotate(-180)" fill="#fff" stroke="#b7b7b7" stroke-linecap="round" stroke-linejoin="round" stroke-width="1.5"/>
            <rect x="671.155" y="186.35" width="11.517" height="16.124" transform="translate(1353.827 388.823) rotate(-180)" fill="#fff" stroke="#b7b7b7" stroke-linecap="round" stroke-linejoin="round" stroke-width="1.5"/>
          </g>
          <rect x="693.072" y="119.657" width="30.285" height="121.118" fill="#e0e0e0" stroke="#b7b7b7" stroke-linecap="round" stroke-linejoin="round" stroke-width="1.5"/>
          <polygon points="693.072 119.657 723.356 119.657 708.214 94.555 693.072 119.657" fill="#e0e0e0" stroke="#b7b7b7" stroke-linecap="round" stroke-linejoin="round" stroke-width="1.5"/>
          <polygon points="572.067 119.657 693.072 119.657 708.214 94.555 587.21 94.555 572.067 119.657" fill="#fff" stroke="#b7b7b7" stroke-linecap="round" stroke-linejoin="round" stroke-width="1.5"/>
          <g>
            <rect x="621.262" y="209.916" width="22.615" height="30.865" transform="translate(1265.139 450.697) rotate(-180)" fill="#fff" stroke="#b7b7b7" stroke-linecap="round" stroke-linejoin="round" stroke-width="1.5"/>
            <line x1="632.57" y1="209.916" x2="632.57" y2="240.811" fill="#fff" stroke="#b7b7b7" stroke-linecap="round" stroke-linejoin="round" stroke-width="1.5"/>
          </g>
          <line x1="634.577" y1="222.707" x2="634.577" y2="228.151" fill="#fff" stroke="#b7b7b7" stroke-linecap="round" stroke-linejoin="round" stroke-width="1.5"/>
          <line x1="630.562" y1="222.707" x2="630.562" y2="228.151" fill="#fff" stroke="#b7b7b7" stroke-linecap="round" stroke-linejoin="round" stroke-width="1.5"/>
        </g>
        <rect x="523.872" y="276.3" width="247.68" height="78.354" fill="#fcfcfc" stroke="#b7b7b7" stroke-linecap="round" stroke-linejoin="round" stroke-width="1.5"/>
        <g>
          <line x1="596.831" y1="308.289" x2="679.021" y2="308.289" fill="#fcfcfc" stroke="#b7b7b7" stroke-linecap="round" stroke-linejoin="round" stroke-width="1.5"/>
          <line x1="596.831" y1="324.017" x2="711.999" y2="324.017" fill="#fcfcfc" stroke="#b7b7b7" stroke-linecap="round" stroke-linejoin="round" stroke-width="1.5"/>
        </g>
        <circle cx="562.017" cy="314.082" r="18.772" fill="#fcfcfc" stroke="#b7b7b7" stroke-linecap="round" stroke-linejoin="round" stroke-width="1.5"/>
      </g>
      <g>
        <rect x="74.154" y="50.887" width="247.68" height="303.767" fill="#fcfcfc" stroke="#b7b7b7" stroke-linecap="round" stroke-linejoin="round" stroke-width="1.5"/>
        <g>
          <rect x="146.698" y="118.867" width="81.017" height="127.805" fill="#fff" stroke="#b7b7b7" stroke-linecap="round" stroke-linejoin="round" stroke-width="1.5"/>
          <g>
            <rect x="204.422" y="130.007" width="12.153" height="17.014" transform="translate(420.998 277.027) rotate(-180)" fill="#fff" stroke="#b7b7b7" stroke-linecap="round" stroke-linejoin="round" stroke-width="1.5"/>
            <rect x="181.13" y="130.007" width="12.153" height="17.014" transform="translate(374.412 277.027) rotate(-180)" fill="#fff" stroke="#b7b7b7" stroke-linecap="round" stroke-linejoin="round" stroke-width="1.5"/>
            <rect x="157.837" y="130.007" width="12.153" height="17.014" transform="translate(327.827 277.027) rotate(-180)" fill="#fff" stroke="#b7b7b7" stroke-linecap="round" stroke-linejoin="round" stroke-width="1.5"/>
            <rect x="157.92" y="159.726" width="12.153" height="17.014" transform="translate(327.992 336.465) rotate(-180)" fill="#fff" stroke="#b7b7b7" stroke-linecap="round" stroke-linejoin="round" stroke-width="1.5"/>
            <rect x="158.086" y="189.242" width="12.153" height="17.014" transform="translate(328.324 395.498) rotate(-180)" fill="#fff" stroke="#b7b7b7" stroke-linecap="round" stroke-linejoin="round" stroke-width="1.5"/>
            <rect x="181.047" y="159.726" width="12.153" height="17.014" transform="translate(374.246 336.465) rotate(-180)" fill="#fff" stroke="#b7b7b7" stroke-linecap="round" stroke-linejoin="round" stroke-width="1.5"/>
            <rect x="181.213" y="189.242" width="12.153" height="17.014" transform="translate(374.578 395.498) rotate(-180)" fill="#fff" stroke="#b7b7b7" stroke-linecap="round" stroke-linejoin="round" stroke-width="1.5"/>
            <rect x="204.34" y="159.726" width="12.153" height="17.014" transform="translate(420.832 336.465) rotate(-180)" fill="#fff" stroke="#b7b7b7" stroke-linecap="round" stroke-linejoin="round" stroke-width="1.5"/>
            <rect x="204.505" y="189.242" width="12.153" height="17.014" transform="translate(421.163 395.498) rotate(-180)" fill="#fff" stroke="#b7b7b7" stroke-linecap="round" stroke-linejoin="round" stroke-width="1.5"/>
          </g>
          <rect x="227.715" y="118.867" width="31.957" height="127.805" fill="#e0e0e0" stroke="#b7b7b7" stroke-linecap="round" stroke-linejoin="round" stroke-width="1.5"/>
          <polygon points="227.715 118.867 259.671 118.867 243.693 92.379 227.715 118.867" fill="#e0e0e0" stroke="#b7b7b7" stroke-linecap="round" stroke-linejoin="round" stroke-width="1.5"/>
          <polygon points="146.698 118.867 227.715 118.867 243.693 92.379 162.676 92.379 146.698 118.867" fill="#fff" stroke="#b7b7b7" stroke-linecap="round" stroke-linejoin="round" stroke-width="1.5"/>
          <rect x="174.437" y="214.178" width="23.863" height="32.494" fill="#fff" stroke="#b7b7b7" stroke-linecap="round" stroke-linejoin="round" stroke-width="1.5"/>
          <line x1="186.368" y1="214.178" x2="186.368" y2="246.779" fill="#fff" stroke="#b7b7b7" stroke-linecap="round" stroke-linejoin="round" stroke-width="1.5"/>
          <line x1="188.487" y1="227.675" x2="188.487" y2="233.42" fill="#fff" stroke="#b7b7b7" stroke-linecap="round" stroke-linejoin="round" stroke-width="1.5"/>
          <line x1="184.25" y1="227.675" x2="184.25" y2="233.42" fill="#fff" stroke="#b7b7b7" stroke-linecap="round" stroke-linejoin="round" stroke-width="1.5"/>
        </g>
        <rect x="74.154" y="276.3" width="247.68" height="78.354" fill="#fcfcfc" stroke="#b7b7b7" stroke-linecap="round" stroke-linejoin="round" stroke-width="1.5"/>
        <g>
          <line x1="147.113" y1="308.289" x2="229.304" y2="308.289" fill="#fcfcfc" stroke="#b7b7b7" stroke-linecap="round" stroke-linejoin="round" stroke-width="1.5"/>
          <line x1="147.113" y1="324.017" x2="262.281" y2="324.017" fill="#fcfcfc" stroke="#b7b7b7" stroke-linecap="round" stroke-linejoin="round" stroke-width="1.5"/>
        </g>
        <circle cx="112.3" cy="314.082" r="18.772" fill="#fcfcfc" stroke="#b7b7b7" stroke-linecap="round" stroke-linejoin="round" stroke-width="1.5"/>
      </g>
      <g>
        <rect x="254.411" y=".75" width="329.44" height="404.041" fill="#fff" stroke="#008a1e" stroke-linecap="round" stroke-linejoin="round" stroke-width="1.5"/>
        <rect x="254.411" y="300.572" width="329.44" height="104.219" fill="#fff" stroke="#008a1e" stroke-linecap="round" stroke-linejoin="round" stroke-width="1.5"/>
        <g>
          <line x1="351.454" y1="343.121" x2="460.775" y2="343.121" fill="#fff" stroke="#008a1e" stroke-linecap="round" stroke-linejoin="round" stroke-width="1.5"/>
          <line x1="351.454" y1="364.04" x2="504.639" y2="364.04" fill="#fff" stroke="#008a1e" stroke-linecap="round" stroke-linejoin="round" stroke-width="1.5"/>
        </g>
        <circle cx="305.148" cy="350.826" r="24.968" fill="#fff" stroke="#008a1e" stroke-linecap="round" stroke-linejoin="round" stroke-width="1.5"/>
      </g>
      <line x1=".75" y1="702.249" x2="764.356" y2="702.249" fill="none" stroke="#000" stroke-linecap="round" stroke-linejoin="round" stroke-width="1.5"/>
      <g>
        <rect x="359.745" y="47.731" width="143.731" height="222.912" fill="#008a1e" stroke="#008a1e" stroke-linecap="round" stroke-linejoin="round" stroke-width="1.5"/>
        <rect x="354.713" y="37.525" width="153.796" height="10.205" fill="#008a1e" stroke="#008a1e" stroke-linecap="round" stroke-linejoin="round" stroke-width="1.5"/>
        <rect x="330.207" y="47.731" width="143.731" height="222.912" fill="#fff" stroke="#008a1e" stroke-linecap="round" stroke-linejoin="round" stroke-width="1.5"/>
        <rect x="325.175" y="37.525" width="153.796" height="10.205" fill="#fff" stroke="#008a1e" stroke-linecap="round" stroke-linejoin="round" stroke-width="1.5"/>
        <g>
          <g>
            <path d="m365.371,63.305h0c5.877,0,10.648,4.771,10.648,10.648v18.427h-21.296v-18.427c0-5.877,4.771-10.648,10.648-10.648Z" fill="#fff" stroke="#008a1e" stroke-linecap="round" stroke-linejoin="round" stroke-width="1.5"/>
            <rect x="354.723" y="79.738" width="21.296" height="12.641" fill="#fff" stroke="#008a1e" stroke-linecap="round" stroke-linejoin="round" stroke-width="1.5"/>
          </g>
          <g>
            <path d="m402.156,63.305h0c5.877,0,10.648,4.771,10.648,10.648v18.427h-21.296v-18.427c0-5.877,4.771-10.648,10.648-10.648Z" fill="#fff" stroke="#008a1e" stroke-linecap="round" stroke-linejoin="round" stroke-width="1.5"/>
            <rect x="391.508" y="79.738" width="21.296" height="12.641" fill="#fff" stroke="#008a1e" stroke-linecap="round" stroke-linejoin="round" stroke-width="1.5"/>
          </g>
          <g>
            <path d="m438.94,63.305h0c5.877,0,10.648,4.771,10.648,10.648v18.427h-21.296v-18.427c0-5.877,4.771-10.648,10.648-10.648Z" fill="#fff" stroke="#008a1e" stroke-linecap="round" stroke-linejoin="round" stroke-width="1.5"/>
            <rect x="428.292" y="79.738" width="21.296" height="12.641" fill="#fff" stroke="#008a1e" stroke-linecap="round" stroke-linejoin="round" stroke-width="1.5"/>
          </g>
        </g>
        <g>
          <g>
            <path d="m365.371,108.225h0c5.877,0,10.648,4.771,10.648,10.648v18.427h-21.296v-18.427c0-5.877,4.771-10.648,10.648-10.648Z" fill="#fff" stroke="#008a1e" stroke-linecap="round" stroke-linejoin="round" stroke-width="1.5"/>
            <rect x="354.723" y="124.658" width="21.296" height="12.641" fill="#fff" stroke="#008a1e" stroke-linecap="round" stroke-linejoin="round" stroke-width="1.5"/>
          </g>
          <g>
            <path d="m402.156,108.225h0c5.877,0,10.648,4.771,10.648,10.648v18.427h-21.296v-18.427c0-5.877,4.771-10.648,10.648-10.648Z" fill="#fff" stroke="#008a1e" stroke-linecap="round" stroke-linejoin="round" stroke-width="1.5"/>
            <rect x="391.508" y="124.658" width="21.296" height="12.641" fill="#fff" stroke="#008a1e" stroke-linecap="round" stroke-linejoin="round" stroke-width="1.5"/>
          </g>
          <g>
            <path d="m438.94,108.225h0c5.877,0,10.648,4.771,10.648,10.648v18.427h-21.296v-18.427c0-5.877,4.771-10.648,10.648-10.648Z" fill="#fff" stroke="#008a1e" stroke-linecap="round" stroke-linejoin="round" stroke-width="1.5"/>
            <rect x="428.292" y="124.658" width="21.296" height="12.641" fill="#fff" stroke="#008a1e" stroke-linecap="round" stroke-linejoin="round" stroke-width="1.5"/>
          </g>
        </g>
        <g>
          <g>
            <path d="m365.371,153.145h0c5.877,0,10.648,4.771,10.648,10.648v18.427h-21.296v-18.427c0-5.877,4.771-10.648,10.648-10.648Z" fill="#fff" stroke="#008a1e" stroke-linecap="round" stroke-linejoin="round" stroke-width="1.5"/>
            <rect x="354.723" y="169.579" width="21.296" height="12.641" fill="#fff" stroke="#008a1e" stroke-linecap="round" stroke-linejoin="round" stroke-width="1.5"/>
          </g>
          <g>
            <path d="m402.156,153.145h0c5.877,0,10.648,4.771,10.648,10.648v18.427h-21.296v-18.427c0-5.877,4.771-10.648,10.648-10.648Z" fill="#fff" stroke="#008a1e" stroke-linecap="round" stroke-linejoin="round" stroke-width="1.5"/>
            <rect x="391.508" y="169.579" width="21.296" height="12.641" fill="#fff" stroke="#008a1e" stroke-linecap="round" stroke-linejoin="round" stroke-width="1.5"/>
          </g>
          <g>
            <path d="m438.94,153.145h0c5.877,0,10.648,4.771,10.648,10.648v18.427h-21.296v-18.427c0-5.877,4.771-10.648,10.648-10.648Z" fill="#fff" stroke="#008a1e" stroke-linecap="round" stroke-linejoin="round" stroke-width="1.5"/>
            <rect x="428.292" y="169.579" width="21.296" height="12.641" fill="#fff" stroke="#008a1e" stroke-linecap="round" stroke-linejoin="round" stroke-width="1.5"/>
          </g>
        </g>
        <g>
          <rect x="414.859" y="251.498" width="22.791" height="19.145" fill="#fff" stroke="#008a1e" stroke-linecap="round" stroke-linejoin="round" stroke-width="1.5"/>
          <rect x="346.77" y="265.917" width="70.75" height="4.726" fill="#fff" stroke="#008a1e" stroke-linecap="round" stroke-linejoin="round" stroke-width="1.5"/>
          <rect x="356.835" y="256.304" width="70.75" height="4.726" fill="#fff" stroke="#008a1e" stroke-linecap="round" stroke-linejoin="round" stroke-width="1.5"/>
          <rect x="351.802" y="261.11" width="70.75" height="4.726" fill="#fff" stroke="#008a1e" stroke-linecap="round" stroke-linejoin="round" stroke-width="1.5"/>
          <rect x="361.867" y="251.498" width="70.75" height="4.726" fill="#fff" stroke="#008a1e" stroke-linecap="round" stroke-linejoin="round" stroke-width="1.5"/>
        </g>
        <g>
          <rect x="377.285" y="205.872" width="49.613" height="45.626" fill="#fff" stroke="#008a1e" stroke-linecap="round" stroke-linejoin="round" stroke-width="1.5"/>
          <rect x="380.788" y="209.746" width="42.569" height="41.732" fill="#fff" stroke="#008a1e" stroke-linecap="round" stroke-linejoin="round" stroke-width="1.5"/>
          <line x1="402.072" y1="209.746" x2="402.072" y2="251.498" fill="#fff" stroke="#008a1e" stroke-linecap="round" stroke-linejoin="round" stroke-width="1.5"/>
          <line x1="380.788" y1="238.806" x2="423.357" y2="238.806" fill="#fff" stroke="#008a1e" stroke-linecap="round" stroke-linejoin="round" stroke-width="1.5"/>
        </g>
      </g>
      <g>
        <path id="l1_shoe" d="m192.441,672.299l-2.106,29.75h70.911s8.776-14.644-12.69-16.433c-13.6-1.133-14.182-14.733-14.182-14.733" fill="#fff" stroke="#000" stroke-linecap="round" stroke-linejoin="round" stroke-width="1.5"/>
        <path id="l1_shoe-2" data-name="l1_shoe" d="m287.143,672.299l-1.561,29.75h70.366s8.776-14.644-12.69-16.433c-13.6-1.133-14.182-14.733-14.182-14.733" fill="#fff" stroke="#000" stroke-linecap="round" stroke-linejoin="round" stroke-width="1.5"/>
        <polygon id="l1_f" points="339.875 678.292 278.294 677.699 254.863 387.698 244.245 678.292 185.9 678.398 191.69 318.238 306.852 313.898 339.875 678.292"/>
        <polygon id="l1_st" points="339.875 678.292 278.294 677.699 254.863 387.698 244.245 678.292 185.9 678.398 191.69 318.238 306.852 313.898 339.875 678.292" fill="none" stroke="#000" stroke-linecap="round" stroke-linejoin="round" stroke-width="1.5"/>
        <g>
          <path id="f1_bg" d="m265.533,142.687c-1.526,4.342-5.228,7.851-11.86,10.492l2.912,14.58s4.132,14.246-12.316,17.606c-19.58,4-20.729-11.676-20.729-11.676,0,0-6.714-33.274-9.077-45.647-.933-4.883-.468-9.96,1.543-14.507,4.469-10.105,13.472-17.805,25.56-16.936,14.301,1.027,18.51,11.009,19.124,12.86,2.974,8.939,6.746,27.835,4.842,33.229Z" fill="#fdfdfd" stroke="#000" stroke-linecap="round" stroke-linejoin="round" stroke-width="1.5"/>
          <path id="f1_h" d="m277.954,88.351c-1.939-9.518-11.229-15.659-20.746-13.711-2.342.474-4.474,1.404-6.342,2.667-3.474-4.009-8.948-6.088-14.509-4.948-5.948,1.211-10.351,5.755-11.711,11.281-.518.079-1.035.167-1.553.272-15.141,3.088-24.913,17.878-21.825,33.019.34,1.661.825,3.254,1.431,4.776,2.192,7.395,8.4,26.162,15.901,29.716,7.341,3.477,17.494-.37,23.092-4.322,5.598-3.952,4.939-14.242,4.939-14.242l-1.201-5.932.048.005,5.104-1.07-1.609-7.463c5.725-1.922,3.667-10.072,3.667-10.072l6.998-1.681c.331.756.685,1.705,1.052,2.812,1.175.009,2.36-.105,3.553-.351,9.518-1.947,15.659-11.237,13.711-20.755Z"/>
          <path id="f1_n" d="m263.301,122.589l4.326,3.652c.58.395.572,1.253-.015,1.638l-3.2,1.439" fill="#fdfdfd" stroke="#000" stroke-linecap="round" stroke-linejoin="round" stroke-width="1.5"/>
          <g id="f1_eye">
            <path d="m261.885,118.583l-.015-.131c.007-.177-.03-.342-.111-.495-.052-.159-.14-.297-.266-.414-.116-.125-.254-.214-.414-.266-.153-.08-.318-.117-.495-.111l-.342.046c-.218.061-.407.171-.567.33l-.201.26c-.116.2-.175.417-.175.649l.015.131c-.007.177.03.342.111.495.052.159.14.297.266.414.116.125.254.214.414.266.153.08.318.117.495.111l.342-.046c.218-.061.407-.171.567-.33l.201-.26c.116-.2.175-.417.175-.649h0Z"/>
          </g>
          <path id="f1_eb" d="m261.13,111.697s-4.876,1.118-5.256,5.054" fill="none" stroke="#000" stroke-linecap="round" stroke-linejoin="round" stroke-width="1.5"/>
          <path id="f1_e" d="m249.232,135.059c-4.11.839-8.131-1.857-8.981-6.021-.814-3.985,1.575-7.864,5.384-8.926" fill="#fdfdfd" stroke="#000" stroke-linecap="round" stroke-linejoin="round" stroke-width="1.5"/>
          <path id="f1_st" d="m247.125,153.646c3.828.617,6.551-.468,6.551-.468" fill="none" stroke="#000" stroke-linecap="round" stroke-linejoin="round" stroke-width="1.5"/>
          <polygon id="f1_sh" points="255.336 161.549 246.816 154.047 253.731 153.306 255.336 161.549"/>
          <path id="f1_m" d="m257.005,133.456s1.864,3.619,6.579,1.974" fill="none" stroke="#000" stroke-linecap="round" stroke-linejoin="round" stroke-width="1.5"/>
        </g>
        <g id="b7_h">
          <path id="b7_h-2" data-name="b7_h" d="m422,158.856c.017-3.955-4.177-3.928-4.177-3.928-.461-3.867-4.372-3.645-4.372-3.645,9.434-14.571,9.323-16.527,7.085-16.611-1.147-.043-5.288,4.358-10.387,10.886-3.141,4.021-5.373,6.831-6.697,8.485-.225-.798-.458-1.669-.696-2.624-1.006-4.03-6.938-8.827-5.367-.247,1.571,8.58-8.464,19.056-8.464,19.056l15.094,17.649s13.028-11.566,15.522-15.481c2.494-3.915,4.971-7.183,5.542-10.03.694-3.461-3.082-3.511-3.082-3.511Z" fill="#fdfdfd" stroke="#000" stroke-linecap="round" stroke-linejoin="round" stroke-width="1.5"/>
          <line id="b7_h-3" data-name="b7_h" x1="403.451" y1="154.044" x2="401.895" y2="156.323" fill="none" stroke="#000" stroke-linecap="round" stroke-linejoin="round" stroke-width="1.5"/>
        </g>
        <path id="b1_fst" d="m418.069,183.861l-48.094,70.224c-4.329,6.421-11.974,10.004-19.612,8.723-2.853-.479-5.614-1.543-8.088-3.172l-.71-.474-37.177-24.51c.57,14.036,1.325,50.972,2.544,79.245l-115.241,4.34v-15.187l-16.322,5.323c-12.995,3.204-24.656-8.721-21.163-21.641l26.391-97.617c1.404-2.851,3.184-5.158,5.105-7.009,2.298-2.386,5.053-4.176,8.027-5.316,4.281-1.886,7.728-2.228,7.728-2.228l74.426-5.518c13.038-1.082,18.642,2.135,24.851,6.123l50.055,38.686,37.891-52.399,29.389,22.406Z" fill="#fdfdff" stroke="#000" stroke-linecap="round" stroke-linejoin="round" stroke-width="1.5"/>
        <line id="b1_st" x1="304.649" y1="234.826" x2="286.466" y2="223.495" fill="none" stroke="#000" stroke-linecap="round" stroke-linejoin="round" stroke-width="1.5"/>
        <line id="b1_st-2" data-name="b1_st" x1="191.69" y1="318.238" x2="191.569" y2="229.16" fill="#008a1e" stroke="#000" stroke-linecap="round" stroke-linejoin="round" stroke-width="1.5"/>
      </g>
      <line x1="318.974" y1="270.643" x2="521.714" y2="270.643" fill="#fff" stroke="#008a1e" stroke-linecap="round" stroke-linejoin="round" stroke-width="1.5"/>
      <g>
        <line x1="509.905" y1="220.605" x2="509.905" y2="270.643" fill="#fff" stroke="#008a1e" stroke-linecap="round" stroke-linejoin="round" stroke-width="1.5"/>
        <circle cx="509.905" cy="220.605" r="20.132" fill="#fff" stroke="#008a1e" stroke-linecap="round" stroke-linejoin="round" stroke-width="1.5"/>
        <line x1="509.905" y1="258.667" x2="519.69" y2="252.884" fill="#fff" stroke="#008a1e" stroke-linecap="round" stroke-linejoin="round" stroke-width="1.5"/>
        <circle cx="525.876" cy="248.055" r="9.249" fill="#fff" stroke="#008a1e" stroke-linecap="round" stroke-linejoin="round" stroke-width="1.5"/>
      </g>
      <g>
        <path d="m118.494,512.934H49.815v-118.525h68.68v118.525Zm-63.506-5.174h58.332v-108.178h-58.332v108.178Z" fill="#fdfdff" stroke="#000" stroke-linecap="round" stroke-linejoin="round" stroke-width="1.5"/>
        <rect x="67.814" y="392.91" width="32.681" height="8.232" stroke="#000" stroke-linecap="round" stroke-linejoin="round" stroke-width="1.5"/>
        <rect x="22.32" y="506.898" width="123.669" height="183.09" fill="#fdfdff" stroke="#000" stroke-linecap="round" stroke-linejoin="round" stroke-width="1.5"/>
        <g>
          <circle cx="44.95" cy="696.169" r="6.08" fill="#fdfdff" stroke="#000" stroke-linecap="round" stroke-linejoin="round" stroke-width="1.5"/>
          <circle cx="123.359" cy="696.169" r="6.08" fill="#fdfdff" stroke="#000" stroke-linecap="round" stroke-linejoin="round" stroke-width="1.5"/>
        </g>
        <line x1="42.398" y1="526.977" x2="42.398" y2="669.983" fill="#fdfdff" stroke="#000" stroke-linecap="round" stroke-linejoin="round" stroke-width="1.5"/>
        <line x1="125.911" y1="526.977" x2="125.911" y2="669.983" fill="#fdfdff" stroke="#000" stroke-linecap="round" stroke-linejoin="round" stroke-width="1.5"/>
        <line x1="84.154" y1="526.977" x2="84.154" y2="669.983" fill="#fdfdff" stroke="#000" stroke-linecap="round" stroke-linejoin="round" stroke-width="1.5"/>
      </g>
    </g>
  </g>
</svg>